<svg width="145" height="42" viewBox="0 0 145 42" fill="none" xmlns="http://www.w3.org/2000/svg">
<g clip-path="url(#clip0_102_937)">
<path d="M9.64904 41.0296C9.61546 40.9849 9.5928 40.9329 9.5829 40.8779C9.57299 40.8229 9.57611 40.7663 9.592 40.7127C9.65538 39.9395 9.72509 39.1631 9.79164 38.39L10.0103 35.9151C10.1244 34.6096 10.2395 33.302 10.3557 31.9922C10.4444 30.9687 10.53 29.942 10.6187 28.9153L10.9609 25.0336C11.0433 24.0977 11.1246 23.1619 11.2049 22.226C11.3169 20.9585 11.4225 19.6815 11.5218 18.395C11.5218 18.3348 11.5218 18.2746 11.5218 18.2144C11.5218 18.1542 11.5218 18.094 11.4362 18.0749C11.4072 18.067 11.3762 18.0696 11.3489 18.0824C11.3216 18.0952 11.2998 18.1172 11.2873 18.1447C11.1732 18.3475 11.0591 18.5503 10.9514 18.7531C10.0599 20.4431 9.17267 22.1331 8.28964 23.8231C7.1774 25.9525 6.05248 28.0724 4.96559 30.2145C4.8518 30.4999 4.64595 30.739 4.38072 30.894C4.11549 31.049 3.80608 31.111 3.50162 31.0701C2.47177 31.0162 1.43874 31.0511 0.408892 31.0511H0.0761719C5.77997 20.8011 11.4964 10.5935 17.2256 0.428039L17.2826 0.450218C17.2383 0.950884 17.1939 1.44839 17.1464 1.94588C17.0545 2.94088 16.9594 3.93587 16.8675 4.93087L16.5253 8.54644C16.4366 9.49707 16.351 10.4477 16.2623 11.3983C16.1482 12.6151 16.0331 13.832 15.9169 15.0488C15.8282 15.9994 15.7426 16.95 15.6539 17.9007C15.543 19.1048 15.4257 20.3121 15.3148 21.5194C15.2578 22.1405 15.2018 22.7637 15.1469 23.389C15.1469 23.389 15.1469 23.408 15.1469 23.4175C15.1469 23.4809 15.1469 23.5411 15.2198 23.5633C15.2926 23.5854 15.3085 23.5252 15.3307 23.484C15.3845 23.389 15.4352 23.2876 15.4891 23.1893L27.7618 0.34248C27.8093 0.253755 27.8632 0.165028 27.9139 0.0794714C27.9297 0.0509524 27.9614 0.0509518 27.9931 0.0541206C28.0248 0.0572894 28.0374 0.0921481 28.0374 0.120667C28.0374 0.222068 28.0374 0.323469 28.0216 0.437545C27.8822 1.98708 27.7459 3.53661 27.6033 5.08297C27.4512 6.73073 27.2981 8.37955 27.1438 10.0294C27.0329 11.2241 26.9284 12.4219 26.827 13.6197C26.6971 15.0361 26.5576 16.4525 26.4277 17.869C26.3157 19.0668 26.2101 20.2635 26.1108 21.4592C26.0115 22.6549 25.8985 23.8812 25.7718 25.1381C25.6799 26.1236 25.5943 27.1091 25.5024 28.0946C25.4306 28.8678 25.3545 29.641 25.2743 30.4142C25.2714 30.4974 25.2522 30.5793 25.2176 30.6551C25.1831 30.7309 25.134 30.7991 25.0731 30.8559C25.0122 30.9127 24.9406 30.9569 24.8626 30.9861C24.7846 31.0152 24.7016 31.0287 24.6183 31.0257C23.617 31.0257 22.6188 31.0257 21.589 31.0257C21.6302 30.5821 21.665 30.1448 21.7062 29.7075L21.9914 26.7542L22.3337 23.2686C22.4224 22.3369 22.5079 21.4022 22.5967 20.4674C22.6632 19.7734 22.7266 19.0794 22.7931 18.3855C22.801 18.3255 22.801 18.2648 22.7931 18.2049C22.7889 18.1853 22.7793 18.1673 22.7654 18.1528C22.7514 18.1384 22.7338 18.1281 22.7144 18.1232C22.6949 18.1183 22.6745 18.1188 22.6554 18.1249C22.6363 18.1309 22.6192 18.1421 22.6062 18.1573C22.559 18.2233 22.5176 18.2933 22.4826 18.3665L9.89938 40.7729C9.85184 40.8584 9.77579 40.9345 9.78213 41.0454L9.64904 41.0296Z" fill="white"/>
<path d="M145 30.788C144.86 30.8085 144.718 30.8085 144.579 30.788C140.969 30.788 137.36 30.7563 133.754 30.769C132.564 30.7838 131.399 30.4332 130.414 29.7645C129.43 29.0959 128.675 28.1414 128.25 27.0298C128.021 26.4459 127.9 25.8254 127.892 25.1983C127.892 23.0879 127.857 20.9774 127.892 18.8607C127.931 17.5833 128.398 16.3561 129.218 15.3758C130.038 14.3955 131.163 13.719 132.414 13.4548C132.808 13.3647 133.211 13.32 133.615 13.3217H144.835C144.896 13.3185 144.956 13.3185 145.016 13.3217V17.2003C144.946 17.2003 144.877 17.2003 144.804 17.2003H133.906C133.613 17.1925 133.321 17.2482 133.051 17.3636C132.78 17.479 132.538 17.6513 132.341 17.8689C131.978 18.2705 131.787 18.7983 131.809 19.3392C131.809 21.1359 131.809 22.9326 131.809 24.7261C131.805 25.1307 131.901 25.5299 132.087 25.8891C132.227 26.1808 132.459 26.4189 132.747 26.5672C133.157 26.7633 133.607 26.8619 134.062 26.8555C137.709 26.8555 141.35 26.8714 145.003 26.884L145 30.788Z" fill="white"/>
<path d="M89.3186 29.52C89.4327 29.4851 89.4232 29.3837 89.439 29.2982C89.6925 28.0307 89.965 26.7632 90.2312 25.5147C90.6199 23.6937 91.0086 21.8716 91.3973 20.0485C91.7554 18.3627 92.1071 16.677 92.4684 14.9943C92.5277 14.5901 92.7126 14.2148 92.9969 13.9213C93.2813 13.6279 93.6506 13.4313 94.0527 13.3592C94.466 13.2663 94.8985 13.3159 95.28 13.5C95.6614 13.6841 95.9694 13.9919 96.1536 14.3732C96.5561 15.2066 96.949 16.0432 97.3546 16.8734C97.7317 17.6403 98.1278 18.3976 98.4859 19.1708C98.8693 20.0073 99.3414 20.7995 99.6868 21.6519C99.8199 21.9688 99.9625 22.2857 100.124 22.6026C100.212 22.7687 100.312 22.9277 100.425 23.0779C100.51 23.1852 100.62 23.2693 100.746 23.3226C100.872 23.3759 101.009 23.3965 101.145 23.3826C101.281 23.3687 101.411 23.3207 101.523 23.2431C101.636 23.1654 101.727 23.0606 101.788 22.9385C102.032 22.479 102.244 22.0037 102.475 21.5379C103.397 19.6619 104.326 17.7892 105.239 15.9101C105.479 15.4158 105.739 14.9278 105.967 14.4271C106.137 14.0626 106.418 13.7613 106.77 13.5666C107.122 13.3718 107.527 13.2937 107.926 13.3434C108.311 13.3792 108.676 13.5328 108.971 13.7834C109.266 14.0341 109.476 14.3695 109.573 14.744C109.678 15.1116 109.741 15.4918 109.817 15.8689C110.119 17.3308 110.416 18.7937 110.708 20.2577C110.722 20.5012 110.758 20.743 110.816 20.9801C110.928 21.3232 111.012 21.6751 111.066 22.0322C111.324 23.2469 111.571 24.4626 111.807 25.6794C111.836 25.9504 111.887 26.2186 111.96 26.4811C111.989 26.604 112.059 26.7132 112.159 26.7909C112.258 26.8686 112.381 26.9102 112.508 26.9089C112.65 26.9089 112.79 26.9248 112.932 26.9248H121.729C121.789 26.9295 121.849 26.9295 121.909 26.9248C121.941 26.9163 121.973 26.9148 122.005 26.9203C122.037 26.9258 122.067 26.9382 122.094 26.9566C122.12 26.975 122.143 26.999 122.159 27.0269C122.175 27.0548 122.185 27.0859 122.188 27.1181C122.29 27.4499 122.429 27.7689 122.603 28.0687C122.974 28.7848 123.278 29.5295 123.627 30.2552C123.712 30.4263 123.785 30.6037 123.861 30.7748C123.811 30.8636 123.732 30.8319 123.665 30.8319H110.584C110.108 30.8614 109.638 30.7107 109.267 30.4095C108.897 30.1083 108.653 29.6788 108.585 29.2063C108.176 27.305 107.783 25.3752 107.384 23.4613C107.324 23.1729 107.27 22.8877 107.203 22.6026C107.19 22.5038 107.144 22.4122 107.073 22.3418C107.003 22.2714 106.911 22.2261 106.812 22.2128C106.713 22.1995 106.613 22.219 106.526 22.2682C106.439 22.3174 106.371 22.3937 106.332 22.4853L105.932 23.3029C104.912 25.3964 103.893 27.493 102.875 29.5929C102.726 29.9318 102.486 30.2226 102.182 30.4325C101.877 30.6424 101.52 30.763 101.15 30.7808C100.78 30.7986 100.413 30.7128 100.09 30.5332C99.7663 30.3535 99.4995 30.0871 99.3193 29.764C99.1862 29.5232 99.0753 29.276 98.9548 29.032C97.9113 26.9195 96.8698 24.8017 95.8304 22.6786C95.7937 22.5951 95.7524 22.5136 95.7068 22.4346C95.6653 22.3533 95.5991 22.2872 95.5177 22.2456C95.4364 22.2041 95.344 22.1893 95.2537 22.2033C95.1616 22.2087 95.0738 22.2446 95.0044 22.3055C94.9349 22.3663 94.8877 22.4485 94.8703 22.5392C94.7911 22.8751 94.7214 23.2078 94.6485 23.5437C94.5217 24.1362 94.4077 24.732 94.2714 25.3214C94.0813 26.1516 93.9387 26.9945 93.7327 27.8184C93.6123 28.2937 93.5457 28.769 93.4348 29.257C93.3492 29.6758 93.1292 30.0552 92.8084 30.3377C92.4876 30.6202 92.0834 30.7904 91.6572 30.8224H91.505L87.9877 30.8509C87.816 30.8625 87.6436 30.8454 87.4775 30.8002C87.5599 30.8002 87.6391 30.8002 87.7184 30.8002H89.2837C89.5689 30.8002 89.5689 30.8002 89.5087 30.5087C89.4485 30.2171 89.3788 29.8432 89.3186 29.52Z" fill="white"/>
<path d="M129.134 30.7691C129.057 30.8159 128.966 30.8318 128.877 30.8135C127.645 30.8135 126.412 30.8135 125.176 30.8135C125.094 30.8236 125.01 30.804 124.94 30.7581C124.871 30.7123 124.819 30.6432 124.796 30.5632C123.503 27.7134 122.207 24.8678 120.908 22.0265C120.823 21.8321 120.724 21.6446 120.61 21.4656C120.539 21.3638 120.446 21.2802 120.336 21.2219C120.227 21.1636 120.105 21.1322 119.981 21.1304C119.857 21.1285 119.735 21.1563 119.624 21.2112C119.513 21.2662 119.416 21.3469 119.343 21.4466C119.234 21.6045 119.141 21.7721 119.064 21.9473C118.487 23.2148 117.904 24.4569 117.337 25.7181C117.31 25.8022 117.255 25.8744 117.181 25.9224C117.107 25.9703 117.019 25.9911 116.931 25.9811C115.699 25.9811 114.463 25.9811 113.23 25.9811H112.989C112.939 25.8449 113.024 25.7561 113.068 25.6642C113.632 24.4242 114.199 23.1862 114.767 21.9504L115.955 19.352L118.173 14.4975C118.311 14.1521 118.549 13.8562 118.857 13.6482C119.165 13.4402 119.529 13.3298 119.9 13.3314C120.277 13.3016 120.654 13.3892 120.979 13.5821C121.304 13.775 121.562 14.0637 121.716 14.4087C121.963 14.9031 122.144 15.4323 122.404 15.9171C122.71 16.4938 122.989 17.0821 123.24 17.6821L123.677 18.7151C123.855 19.1302 124.048 19.539 124.245 19.9446C124.39 20.2615 124.543 20.553 124.682 20.8604C124.999 21.5924 125.351 22.318 125.664 23.0563C125.785 23.3896 125.922 23.7164 126.076 24.0355C126.289 24.422 126.477 24.8221 126.637 25.2333C126.903 25.867 127.236 26.5008 127.499 27.1345C127.619 27.4292 127.727 27.7271 127.848 28.0186C127.895 28.1264 127.981 28.2151 128.028 28.3355C128.402 29.1531 128.763 29.9453 129.134 30.7691Z" fill="white"/>
<path d="M38.5928 30.8068C38.6403 30.4202 38.6815 30.0622 38.729 29.7041C38.9033 28.3732 39.0776 27.0423 39.2614 25.7114C39.4705 24.1936 39.6892 22.6757 39.8951 21.1579C39.9372 20.7254 40.0049 20.2958 40.0979 19.8714C40.2078 19.3377 40.4682 18.8467 40.8484 18.4564C41.2286 18.0661 41.7126 17.7929 42.2432 17.6691C43.008 17.4866 43.8132 17.5915 44.5057 17.9638C44.7161 18.078 44.8944 18.2431 45.0245 18.4441C45.1546 18.645 45.2323 18.8754 45.2504 19.114C45.3423 19.6939 45.4151 20.2738 45.4944 20.8537C45.6718 22.1614 45.8482 23.4711 46.0236 24.783C46.163 25.854 46.2992 26.9251 46.4672 27.993C46.4672 28.0405 46.4672 28.0912 46.4894 28.1419C46.5115 28.1926 46.5179 28.2845 46.6161 28.275C46.7143 28.2655 46.7714 28.256 46.7841 28.1451C46.8062 27.9454 46.8474 27.7458 46.876 27.5462C47.0851 26.0251 47.2911 24.5073 47.5097 22.9895C47.7284 21.4716 47.9502 19.8714 48.1752 18.3123C48.199 18.1615 48.2701 18.0222 48.3784 17.9146C48.4866 17.8069 48.6263 17.7365 48.7772 17.7134C49.4617 17.6532 50.1461 17.6913 50.8496 17.6944C50.7957 18.1254 50.7482 18.5215 50.6975 18.9207C50.5422 20.071 50.3806 21.2213 50.2317 22.3715C50.0606 23.62 49.8831 24.8717 49.712 26.1202C49.6011 26.9187 49.4965 27.7204 49.3951 28.519C49.3565 28.7886 49.2852 29.0525 49.1828 29.3048C49.0321 29.7167 48.7638 30.0753 48.4112 30.3361C48.0585 30.5969 47.6371 30.7484 47.1992 30.772C46.5961 30.8438 45.9858 30.83 45.3866 30.7308C45.1333 30.6915 44.8963 30.5814 44.7028 30.4132C44.5094 30.245 44.3675 30.0256 44.2934 29.7801C44.1741 29.3837 44.0965 28.9759 44.0621 28.5633C43.8508 26.9219 43.6311 25.2815 43.403 23.6422C43.2762 22.6916 43.1463 21.7219 43.0196 20.7618C43.003 20.6109 42.9634 20.4635 42.9023 20.3245C42.8878 20.292 42.8626 20.2654 42.8309 20.2493C42.7992 20.2331 42.7628 20.2284 42.728 20.2358C42.6393 20.2358 42.6615 20.3213 42.652 20.3752C42.5347 21.2023 42.4143 22.0325 42.3002 22.8627C42.1196 24.1302 41.9453 25.4199 41.7679 26.7001C41.6221 27.7395 41.4742 28.7788 41.3243 29.8182C41.3084 29.9481 41.2736 30.0748 41.2672 30.2048C41.2333 30.342 41.1625 30.4673 41.0625 30.5673C40.9626 30.6673 40.8372 30.738 40.7 30.772C39.9991 30.8283 39.2952 30.8399 38.5928 30.8068Z" fill="white"/>
<path d="M32.1223 31.1396C31.4885 31.1396 30.8548 31.1396 30.221 31.1396C29.7653 31.1432 29.3125 31.066 28.8838 30.9115C28.4116 30.7535 27.9975 30.4579 27.6948 30.0625C27.3921 29.6672 27.2146 29.1903 27.1853 28.6933C27.1034 27.6464 27.1183 26.5941 27.2297 25.5499C27.3039 24.5846 27.4309 23.6241 27.6099 22.6726C27.7857 21.7611 28.0294 20.864 28.3387 19.9887C28.5456 19.3392 28.9382 18.7646 29.4682 18.336C29.9982 17.9074 30.6422 17.6436 31.3206 17.5772C31.9023 17.5102 32.4873 17.4764 33.0729 17.4758C34.2263 17.441 35.3798 17.4758 36.53 17.5329C36.9731 17.5459 37.4071 17.6619 37.7975 17.8719C38.1618 18.052 38.4725 18.3243 38.6988 18.6617C38.9251 18.9992 39.059 19.3901 39.0872 19.7954C39.1543 20.7834 39.1437 21.7751 39.0555 22.7614C38.9953 23.6676 38.9066 24.5707 38.7704 25.4707C38.6005 26.6178 38.2996 27.7416 37.8736 28.8201C37.3698 30.0876 36.3906 30.7689 35.0882 31.0382C34.6709 31.1212 34.2462 31.1615 33.8207 31.1586H32.1223V31.1396ZM32.6736 28.6616C33.0856 28.6616 33.5989 28.6394 34.1123 28.6014C35.2086 28.5159 35.7537 27.9138 35.8804 27.017C36.0706 25.702 36.2797 24.3869 36.4508 23.0656C36.5205 22.5248 36.5807 21.9829 36.6314 21.44C36.6642 21.2803 36.6629 21.1155 36.6273 20.9564C36.5918 20.7974 36.523 20.6476 36.4254 20.5171C36.3278 20.3865 36.2036 20.2781 36.0611 20.1991C35.9185 20.12 35.7608 20.0721 35.5984 20.0584L35.5065 20.0426C34.6048 19.9169 33.6922 19.8892 32.7845 19.9602C32.4017 19.974 32.0209 20.0228 31.6469 20.1059C31.3593 20.1709 31.0951 20.3138 30.8833 20.5189C30.6715 20.724 30.5202 20.9835 30.446 21.2689C30.3997 21.4228 30.3626 21.5795 30.3351 21.7379C30.1291 22.9515 29.958 24.1715 29.8122 25.3946C29.7425 25.965 29.6696 26.5354 29.6379 27.1089C29.5999 27.8853 29.8502 28.4176 30.7534 28.5602C31.3898 28.6443 32.0319 28.6782 32.6736 28.6616Z" fill="white"/>
<path d="M89.3184 29.5202C89.3849 29.8371 89.4515 30.1539 89.5149 30.4708C89.5782 30.7877 89.5751 30.7623 89.2899 30.7623H87.734C87.6548 30.7623 87.5756 30.7623 87.4932 30.7623C87.2898 30.767 87.092 30.696 86.938 30.5631C86.784 30.4302 86.6849 30.2449 86.6598 30.043C86.5457 29.6247 86.4443 29.2033 86.3429 28.7755C86.2162 28.1861 86.0989 27.5904 85.9785 26.9978C85.9612 26.909 85.939 26.8212 85.912 26.7348C85.8651 26.5032 85.738 26.2955 85.5531 26.1483C85.3682 26.0011 85.1374 25.9238 84.9011 25.9299C84.204 25.9299 83.5069 25.949 82.8097 25.9299C82.6861 25.9299 82.6608 25.9965 82.6481 26.0979L82.401 27.8376C82.2742 28.7248 82.1475 29.6152 82.0239 30.5025C82.0049 30.6388 81.97 30.718 81.8021 30.7148C81.0352 30.7148 80.2652 30.7148 79.4984 30.7148C79.4597 30.7113 79.4215 30.7038 79.3843 30.6926C79.4445 30.2173 79.5047 29.742 79.5681 29.2667C79.7413 27.9865 79.9166 26.7074 80.0941 25.4293C80.2652 24.1808 80.4426 22.9323 80.6138 21.6806C80.7638 20.5716 80.9116 19.4625 81.0574 18.3534C81.0574 18.3027 81.0574 18.252 81.0574 18.2013C81.1303 17.7989 81.2792 17.6658 81.6911 17.6626C82.5024 17.6626 83.3104 17.6626 84.1184 17.6626H88.0604C88.435 17.6613 88.8056 17.7402 89.1473 17.8939C89.4918 18.0339 89.7928 18.2634 90.019 18.5587C90.2451 18.8539 90.3883 19.2042 90.4338 19.5734C90.5804 20.5753 90.5341 21.596 90.2975 22.5806C90.0784 23.4945 89.5388 24.2996 88.7765 24.8494C88.7353 24.8779 88.6941 24.9064 88.6561 24.9381C88.5167 25.0522 88.2854 25.1219 88.2537 25.2835C88.222 25.4451 88.3582 25.6004 88.4343 25.7525C88.6604 26.2812 88.8159 26.8373 88.8969 27.4066C89.0459 28.1354 89.179 28.8357 89.3184 29.5202ZM83.0125 23.4171C83.0506 23.433 83.0664 23.4456 83.0854 23.4456C84.0741 23.4456 85.0659 23.4837 86.0546 23.4456C86.3578 23.4315 86.6538 23.3485 86.9201 23.2028C87.1864 23.0571 87.416 22.8525 87.5914 22.6048C87.7668 22.357 87.8833 22.0725 87.9322 21.7728C87.9811 21.4732 87.961 21.1664 87.8734 20.8758C87.807 20.6519 87.6724 20.4543 87.4884 20.3106C87.3043 20.1669 87.08 20.0842 86.8467 20.0741C85.8961 20.017 84.9677 20.0424 84.0297 20.0741C83.8827 20.0734 83.7404 20.1259 83.6291 20.2221C83.5178 20.3182 83.4451 20.4513 83.4245 20.5969C83.3896 20.7648 83.3579 20.9328 83.3357 21.1039C83.2185 21.8644 83.1139 22.6471 83.0062 23.4171H83.0125Z" fill="white"/>
<path d="M79.298 22.958C79.2124 23.5759 79.1871 24.1526 79.0667 24.7167C79.0461 24.9032 78.9561 25.0751 78.8147 25.1984C78.6732 25.3216 78.4906 25.3872 78.303 25.3821H78.0907H73.8445C73.7232 25.3758 73.6015 25.3758 73.4801 25.3821C73.3358 25.3778 73.1956 25.4307 73.09 25.5292C72.9843 25.6277 72.9219 25.7638 72.9161 25.9081C72.8749 26.1648 72.8654 26.4278 72.8305 26.6877C72.7608 27.2073 72.6816 27.727 72.6087 28.2467C72.6087 28.2942 72.6087 28.3449 72.6087 28.3893C72.7166 28.4261 72.8317 28.437 72.9446 28.421H78.8005C78.9019 28.421 78.9463 28.4558 78.9431 28.5604C78.9422 29.0652 78.8966 29.5689 78.8068 30.0656C78.7798 30.2374 78.6973 30.3957 78.5721 30.5164C78.4468 30.637 78.2856 30.7135 78.1129 30.7342C77.9538 30.7617 77.7927 30.7765 77.6312 30.7786C75.8821 30.8134 74.1456 30.7976 72.3837 30.7944C72.0922 30.7944 71.7975 30.7944 71.506 30.7944C71.2774 30.7917 71.0518 30.7413 70.8438 30.6464C70.6358 30.5515 70.4499 30.4141 70.298 30.2432C70.1462 30.0722 70.0317 29.8715 69.962 29.6537C69.8923 29.436 69.8688 29.206 69.8931 28.9787C69.9343 28.3956 70.0325 27.8189 70.1086 27.239C70.2607 26.1173 70.4149 24.9976 70.5712 23.8801C70.7455 22.6411 70.9293 21.4021 71.1099 20.1663C71.1509 19.9171 71.2211 19.6735 71.319 19.4407C71.4898 18.994 71.7781 18.6018 72.1536 18.3056C72.529 18.0094 72.9775 17.8202 73.4516 17.7581C73.7206 17.712 73.9931 17.6898 74.266 17.6915H79.6529C79.8525 17.6915 80.0553 17.6915 80.2581 17.72C80.4609 17.7485 80.4609 17.7422 80.4356 17.9387C80.3722 18.4298 80.3025 18.9178 80.2328 19.4058C80.2074 19.5769 80.1789 19.7449 80.1599 19.916C80.1599 20.0206 80.0965 20.0554 80.0015 20.0491H79.8811H74.4213H74.209C74.1375 20.0425 74.0655 20.0508 73.9974 20.0736C73.9294 20.0964 73.8668 20.1331 73.8138 20.1814C73.7607 20.2297 73.7183 20.2885 73.6892 20.3541C73.6601 20.4197 73.645 20.4907 73.6449 20.5624C73.5784 21.0314 73.5277 21.513 73.4675 21.9725C73.4294 22.2894 73.3882 22.6063 73.3439 22.9612L79.298 22.958Z" fill="white"/>
<path d="M60.6756 17.7264C60.5742 18.4489 60.4728 19.1556 60.3872 19.8685C60.365 20.0365 60.2858 20.0523 60.1495 20.0523H57.9314C57.1044 20.0523 56.2741 20.0523 55.4439 20.0523C55.047 20.0378 54.6578 20.165 54.346 20.4112C54.0343 20.6574 53.8203 21.0064 53.7423 21.3959C53.7193 21.4833 53.7023 21.5723 53.6916 21.6621C53.6345 22.3814 53.9831 22.7933 54.7056 22.8504C55.07 22.8789 55.4312 22.8947 55.7956 22.9011C56.4294 22.9011 57.0917 22.9011 57.7349 22.9676C57.9771 22.987 58.2175 23.0241 58.4543 23.0785C58.8876 23.1535 59.286 23.3643 59.5918 23.6804C59.8977 23.9965 60.0952 24.4016 60.1559 24.8372C60.385 26.0463 60.2619 27.2958 59.801 28.4369C59.5792 28.9538 59.2539 29.4198 58.8452 29.8062C58.4365 30.1926 57.9529 30.4912 57.4244 30.6836C57.1894 30.7763 56.9387 30.8225 56.6861 30.8198H50.377C49.9809 30.8198 50.0158 30.8705 50.0602 30.4586C50.1299 29.8787 50.2154 29.2988 50.2947 28.7189C50.3263 28.4844 50.3263 28.4813 50.5767 28.4813H55.7291C56.1627 28.4911 56.5859 28.3479 56.9244 28.0767C57.2628 27.8054 57.4948 27.4236 57.5797 26.9983C57.6361 26.8183 57.6505 26.6278 57.6218 26.4414C57.593 26.255 57.5219 26.0777 57.4138 25.9232C57.3058 25.7686 57.1637 25.6409 56.9985 25.5498C56.8333 25.4588 56.6495 25.4069 56.4611 25.3981C56.0405 25.348 55.617 25.3279 55.1936 25.3378C54.6897 25.3378 54.1827 25.3695 53.6789 25.3378C53.3358 25.3192 52.9964 25.2585 52.6681 25.1572C52.2697 25.0598 51.908 24.849 51.6268 24.5504C51.3457 24.2518 51.157 23.8781 51.0837 23.4746C50.8173 22.2809 50.9509 21.0327 51.4639 19.9224C51.8035 19.1807 52.3671 18.5642 53.0753 18.1595C53.7835 17.7548 54.6008 17.5823 55.4122 17.6662C56.3217 17.7328 57.2311 17.7296 58.1405 17.7169L60.3587 17.6948C60.4653 17.6816 60.5736 17.6924 60.6756 17.7264Z" fill="white"/>
<path d="M70.9395 17.6943C70.8571 18.3281 70.8095 18.9143 70.7145 19.5037C70.6987 19.6238 70.6455 19.7358 70.5625 19.824C70.4794 19.9122 70.3708 19.9719 70.2518 19.9949C70.1245 20.0277 69.9936 20.0447 69.8621 20.0456C69.2669 20.0804 68.6701 20.0804 68.0749 20.0456C67.514 20.0044 67.2573 20.1977 67.175 20.7459C67.0641 21.5159 66.969 22.2859 66.8581 23.0559C66.7091 24.1777 66.5412 25.2962 66.4049 26.418C66.2687 27.5397 66.0881 28.7185 65.9486 29.8688C65.9296 30.0177 65.9138 30.1698 65.8853 30.3187C65.8813 30.3928 65.8625 30.4653 65.8297 30.5318C65.797 30.5984 65.7511 30.6576 65.6948 30.7058C65.6385 30.7541 65.573 30.7905 65.5023 30.8127C65.4315 30.835 65.357 30.8426 65.2832 30.8352C65.1216 30.8352 64.9663 30.8162 64.7984 30.8162C64.3643 30.8162 63.9301 30.8162 63.4928 30.8162C63.1443 30.8162 63.176 30.8162 63.2235 30.5279C63.2837 30.0272 63.3598 29.5297 63.4263 29.029C63.5784 27.8988 63.7316 26.7687 63.8858 25.6385C64.0611 24.3709 64.2343 23.1034 64.4055 21.8359C64.4752 21.3258 64.548 20.8156 64.6114 20.3054C64.6368 20.0931 64.6304 20.0899 64.4118 20.0899H61.3444C61.3295 19.8541 61.3476 19.6173 61.3983 19.3865C61.4426 18.9967 61.4902 18.6038 61.5567 18.2172C61.5585 18.1434 61.576 18.0709 61.6082 18.0045C61.6403 17.9381 61.6863 17.8794 61.743 17.8323C61.7998 17.7851 61.866 17.7507 61.9371 17.7313C62.0083 17.7119 62.0828 17.7079 62.1556 17.7197H65.6761H70.9395V17.6943Z" fill="white"/>
</g>
<defs>
<clipPath id="clip0_102_937">
<rect width="145" height="41.0293" fill="white"/>
</clipPath>
</defs>
</svg>
