<svg width="516" height="228" viewBox="0 0 516 228" fill="none" xmlns="http://www.w3.org/2000/svg">
<g clip-path="url(#clip0_492_2035)">
<path d="M99 28.4524H96.2145V28.5728H96.6766V32.93L93.8423 28.4524H92.6236V28.5728H93.0825V34.0819H92.3161L90.3425 28.1953L88.3022 34.0819H87.5766V28.5728H88.0029V28.4524H86.903L85.3394 33.0488L83.6977 28.4524H82.5767V28.5728H83.0372V34.0835H82.1927C81.9015 34.0835 81.6623 33.8281 81.6623 33.4165V32.5623C81.6623 31.8561 81.415 31.2916 80.6275 31.1728C80.9413 31.1271 81.2284 30.9708 81.4372 30.7322C81.646 30.4936 81.7628 30.1882 81.7664 29.8712C81.7664 29.0707 81.1726 28.454 79.993 28.454H78.2358V28.5744H78.6946V34.0852H77.8144L75.8408 28.1986L73.7989 34.0852H73.4165V34.2121H74.4724V34.0852H73.9485L74.5571 32.2954H76.4883L77.079 34.0852H76.3549V34.2121H80.0694V34.0852H79.3535V31.2346H79.8742C80.5885 31.2346 80.9659 31.5259 80.9659 32.2401V32.7412C80.9659 33.9225 81.7323 34.2056 82.1342 34.2056H83.6603V34.0787H83.1608V28.9861L85.0905 34.2658L86.916 28.8087V34.0787H86.4572V34.2056H88.9775V34.0787H88.4487L89.0588 32.2889H90.9885L91.5791 34.0787H90.8567V34.2056H93.6714V34.0787H93.2094V28.7648L96.8002 34.4057V28.5728H97.8822V34.0835H97.4136V34.2105H98.9984V34.0835H98.5395V28.5728H98.9984L99 28.4524ZM74.5945 32.1767L75.5382 29.4286L76.4477 32.1815L74.5945 32.1767ZM79.3535 31.1077V28.5728H79.7945C80.5218 28.5728 81.0099 29.0462 81.0099 29.9021C81.0099 30.3739 80.6405 31.1093 79.8709 31.1093L79.3535 31.1077ZM89.0962 32.175L90.0432 29.4253L90.9527 32.1783L89.0962 32.175Z" fill="#FFFFFE"/>
<path d="M36.5121 28.5725C37.4884 28.5725 37.7324 29.1388 37.7324 29.9458H37.8463V28.4521H34V28.5725H34.5011V34.0833H34V34.2102H37.8463V32.5523H37.7324C37.7324 33.4081 37.5242 34.0849 36.1135 34.0849H35.1633V31.3629H35.5717C36.2095 31.3629 36.5056 31.6883 36.5056 32.2448H36.6179V30.359H36.5056C36.5056 30.922 36.2046 31.2393 35.5717 31.2393H35.1633V28.5725H36.5121Z" fill="#FFFFFE"/>
<path d="M61.5829 28.3135C60.0779 28.3135 59.0903 29.9877 59.0903 31.3333C59.0903 32.7976 60.1609 34.3433 61.5829 34.3433C63.005 34.3433 64.0756 32.8936 64.0756 31.3333C64.0756 29.9909 63.0066 28.3135 61.5829 28.3135ZM61.5829 34.2294C60.0503 34.2294 59.9787 32.2314 59.9787 31.3333C59.9787 30.4351 60.0812 28.4371 61.5829 28.4371C63.0847 28.4371 63.1953 30.4416 63.1953 31.3333C63.1953 32.2249 63.1091 34.2294 61.5829 34.2294Z" fill="#FFFFFE"/>
<path d="M50.2446 28.3135C48.7396 28.3135 47.752 29.9877 47.752 31.3333C47.752 32.7976 48.8225 34.3433 50.2446 34.3433C51.6666 34.3433 52.7372 32.8936 52.7372 31.3333C52.7372 29.9909 51.6666 28.3135 50.2446 28.3135ZM50.2446 34.2294C48.7119 34.2294 48.6403 32.2314 48.6403 31.3333C48.6403 30.4351 48.7428 28.4371 50.2446 28.4371C51.7463 28.4371 51.857 30.4416 51.857 31.3333C51.857 32.2249 51.7707 34.2294 50.2446 34.2294Z" fill="#FFFFFE"/>
<path d="M57.2945 28.5725H57.755V34.0833H56.9106C56.6193 34.0833 56.3818 33.8279 56.3818 33.4162V32.562C56.3818 31.8559 56.1345 31.2913 55.347 31.1725C55.6608 31.1268 55.9479 30.9706 56.1567 30.732C56.3655 30.4933 56.4822 30.188 56.4859 29.8709C56.4859 29.0704 55.892 28.4538 54.7108 28.4538H52.9536V28.5742H53.4124V34.0849H52.9536V34.2119H54.7857V34.0849H54.0746V31.2344H54.5953C55.3096 31.2344 55.687 31.5159 55.687 32.2399V32.741C55.687 33.9401 56.4534 34.2053 56.8552 34.2053H58.8793V34.0784H58.4188V28.5725H58.8793V28.4521H57.2962L57.2945 28.5725ZM54.0763 31.1075V28.5725H54.5172C55.2461 28.5725 55.7342 29.046 55.7342 29.9018C55.7342 30.3737 55.3649 31.1091 54.5953 31.1091L54.0763 31.1075Z" fill="#FFFFFE"/>
<path d="M45.4314 28.4521H42.5027L40.9391 33.0485L39.2909 28.4521H38.1748V28.5725H38.6353V34.0833H38.1748V34.2102H39.2568V34.0833H38.7557V28.9858L40.6853 34.2655L42.5141 28.8085V34.0784H42.0537V34.2053H45.394V34.0784H44.9351V31.8217H45.4314C46.746 31.8217 47.3838 31.0896 47.3838 30.1524C47.3838 29.2494 46.8241 28.4538 45.4314 28.4538M44.2632 34.0849H43.1763V28.5725H44.2632V34.0849ZM45.2703 31.7062H44.9351V28.5725H45.2703C46.1033 28.5725 46.624 29.0021 46.624 30.1524C46.624 31.1921 46.2237 31.7013 45.2703 31.7013" fill="#FFFFFE"/>
<path d="M70.0189 29.1469C70.0564 29.007 70.1637 29.0102 70.3264 29.0102H70.7299C70.7022 28.8682 70.6312 28.7383 70.5266 28.6384C70.422 28.5384 70.2889 28.4734 70.1458 28.4521H68.5416C68.5297 28.4532 68.5184 28.4576 68.5089 28.4648C68.4994 28.472 68.4921 28.4817 68.4879 28.4928C68.3646 28.6829 68.298 28.9041 68.2959 29.1306V29.1485L70.0189 29.1469Z" fill="#FFFFFE"/>
<path d="M66.2331 28.4521H63.3516C63.3447 28.4886 63.3414 28.5257 63.3418 28.5628C63.3418 28.9451 63.7535 29.1453 63.7535 29.1453H66.8172L66.2331 28.4521Z" fill="#FFFFFE"/>
<path d="M67.0809 29.4658H64.1994C64.1916 29.5022 64.1878 29.5393 64.188 29.5765C64.188 29.9588 64.5996 30.1589 64.5996 30.1589H67.6633L67.0809 29.4658Z" fill="#FFFFFE"/>
<path d="M75.3155 28.4521H72.4275L71.8467 29.1453H74.9104C74.9104 29.1453 75.322 28.9468 75.322 28.5628C75.322 28.5256 75.3182 28.4885 75.3106 28.4521" fill="#FFFFFE"/>
<path d="M71.5864 29.4658L71.0039 30.1589H74.0676C74.0676 30.1589 74.4792 29.9604 74.4792 29.5765C74.4787 29.5393 74.4749 29.5023 74.4679 29.4658H71.5864Z" fill="#FFFFFE"/>
<path d="M65.8927 31.4899C65.8853 31.5258 65.8814 31.5623 65.8813 31.5989C65.8813 31.9813 66.293 32.183 66.293 32.183H67.7264C67.7915 32.0376 67.8962 31.9135 68.0286 31.8248C68.1609 31.7362 68.3156 31.6867 68.4748 31.6819C68.5648 31.6828 68.6529 31.7075 68.7303 31.7535C68.7558 31.7704 68.7846 31.7815 68.8149 31.786C68.8271 31.7879 68.8395 31.7872 68.8515 31.7842C68.8634 31.7812 68.8747 31.7758 68.8845 31.7684C68.8944 31.7609 68.9026 31.7516 68.9088 31.741C68.915 31.7303 68.9191 31.7185 68.9206 31.7063V31.6884H69.0004V32.1765H69.8741L70.0612 31.6428L70.071 31.6168L70.2613 32.1765H72.3765C72.3765 32.1765 72.7881 31.9796 72.7881 31.5924C72.7879 31.5558 72.7841 31.5193 72.7767 31.4834L65.8927 31.4899Z" fill="#FFFFFE"/>
<path d="M68.4754 31.7696C68.3582 31.7681 68.2443 31.8089 68.1547 31.8845C68.0651 31.9601 68.0057 32.0654 67.9873 32.1812H68.8805C68.8073 31.8981 68.6251 31.7696 68.4624 31.7696" fill="#FFFFFE"/>
<path d="M67.9367 32.7171C67.9347 32.8771 67.9494 33.0368 67.9806 33.1938H68.8153V32.9383H68.6331V32.8456H69.2351V32.9367H69.0805V33.1921H69.5133C69.5833 32.9888 69.676 32.7382 69.7574 32.499H67.9448C67.9448 32.5869 67.9448 32.6617 67.9448 32.7154" fill="#FFFFFE"/>
<path d="M71.5325 33.1931C71.5325 33.1931 71.9441 32.9946 71.9441 32.6106C71.9444 32.5735 71.9411 32.5365 71.9343 32.5H70.3691L70.6067 33.1931H71.5325Z" fill="#FFFFFE"/>
<path d="M67.6146 32.5H66.7393C66.7325 32.5365 66.7292 32.5735 66.7295 32.6106C66.7295 32.993 67.1395 33.1931 67.1395 33.1931H67.7041C67.6343 33.0437 67.5966 32.8813 67.5935 32.7164C67.5941 32.6436 67.6023 32.5711 67.6179 32.5" fill="#FFFFFE"/>
<path d="M68.438 33.6591C68.4967 33.6604 68.5549 33.6473 68.6074 33.6209C68.6598 33.5945 68.705 33.5557 68.739 33.5078H68.1143C68.152 33.5577 68.2014 33.5976 68.2581 33.624C68.3148 33.6504 68.3772 33.6625 68.4397 33.6591" fill="#FFFFFE"/>
<path d="M70.9645 33.6142V33.7037H70.216V33.6142H70.4503L70.4162 33.5117H69.5066L69.4692 33.6142H69.6319V33.7037H69.2301V33.6142H69.37L69.4058 33.5117H69.0804V33.7037H68.9909V33.6956C68.9909 33.6289 68.9518 33.5866 68.9079 33.5866C68.8478 33.5903 68.7906 33.6137 68.7452 33.6533C68.658 33.7211 68.5497 33.7563 68.4393 33.7525C68.3403 33.7507 68.2426 33.7285 68.1525 33.6874C68.0624 33.6463 67.9817 33.587 67.9154 33.5133H67.59C67.5829 33.5498 67.5791 33.5868 67.5786 33.624C67.5786 34.0063 67.9902 34.2065 67.9902 34.2065H70.6846C70.6846 34.2065 71.0946 34.008 71.0946 33.624C71.0945 33.5869 71.0912 33.5499 71.0849 33.5133H70.7172C70.7383 33.5752 70.7513 33.6142 70.7513 33.6159H70.9677" fill="#FFFFFE"/>
<path d="M69.8988 29.4658H69.8663H68.2962L68.2686 30.1573H70.0957L69.8988 29.4658Z" fill="#FFFFFE"/>
<path d="M70.7399 30.4775L70.4649 30.8029L70.1867 30.4775H68.2538L68.2033 30.8029L67.9235 30.4775H65.0436C65.0362 30.5134 65.0323 30.5499 65.0322 30.5865C65.0322 30.9689 65.4439 31.169 65.4439 31.169H73.2211C73.2211 31.169 73.6327 30.9705 73.6327 30.5865C73.6325 30.5499 73.6287 30.5134 73.6213 30.4775H70.7399Z" fill="#FFFFFE"/>
<path d="M70.078 32.5H69.8551L69.707 32.9377H70.2228L70.078 32.5Z" fill="#FFFFFE"/>
<path d="M69.6741 33.0264L69.6172 33.194H70.3087L70.2534 33.0264H69.6741Z" fill="#FFFFFE"/>
<path d="M36.901 22.9914H51.2905C52.1154 22.9914 52.7093 23.4193 52.7093 24.3402C52.7093 25.2611 52.1154 25.6923 51.2905 25.6923H35.5489C34.4604 25.6923 34 25.0008 34 24.1125V3.8152C34 2.92196 34.4604 2.23535 35.5489 2.23535H51.2905C52.1154 2.23535 52.7093 2.66489 52.7093 3.58579C52.7093 4.50669 52.1154 4.93623 51.2905 4.93623H36.901V12.6126H50.6657C51.4906 12.6126 52.0812 13.0405 52.0812 13.963C52.0812 14.8855 51.4906 15.3151 50.6657 15.3151H36.901V22.9914Z" fill="#FFFFFE"/>
<path d="M61.5894 15.3256L65.7481 5.35842C65.7481 5.35842 65.8018 5.25592 65.875 5.25592C65.9482 5.25592 66.0019 5.35842 66.0019 5.35842L70.2322 15.3256H61.5894ZM76.7078 23.1923L67.9446 3.6598C67.5329 2.68358 66.9244 1.98558 65.875 2.00023H65.8034C64.7946 2.01487 64.2008 2.70961 63.7989 3.6598L55.0357 23.1923C54.9153 23.4803 54.5638 24.2141 54.5346 24.6079C54.4776 25.3644 55.0698 25.8704 55.8248 25.9258C56.6139 25.9827 57.0434 25.5532 57.3168 24.9495L60.509 17.7613V17.7483L71.2881 17.7613L74.4153 24.9495C74.6919 25.5564 75.1198 25.9876 75.9089 25.9258C76.6655 25.8704 77.2561 25.3661 77.1991 24.6079C77.1698 24.2141 76.8168 23.4803 76.698 23.1923" fill="#FFFFFE"/>
<path d="M98.8663 2.0166H78.2111L77.2593 4.14313H97.9259L98.8663 2.0166Z" fill="#FFFFFE"/>
<path d="M97.2999 5.55859H76.6251L75.6343 7.76973H96.3236L97.2999 5.55859Z" fill="#FFFFFE"/>
<path d="M95.6955 9.18555H87.9964L87.0381 11.3967H94.7177L95.6955 9.18555Z" fill="#FFFFFE"/>
<path d="M94.0928 12.8115H86.423L85.4663 15.0227H93.115L94.0928 12.8115Z" fill="#FFFFFE"/>
<path d="M92.4885 16.4385H84.8529L83.8945 18.6496H91.509L92.4885 16.4385Z" fill="#FFFFFE"/>
<path d="M90.8826 20.0674H83.2795L82.3228 22.2785H89.9047L90.8826 20.0674Z" fill="#FFFFFE"/>
<path d="M89.2799 23.6934H81.7077L80.751 25.9029H88.302L89.2799 23.6934Z" fill="#FFFFFE"/>
</g>
<path d="M40.5938 69.248V71.96H33.6098V76.256H38.9618V78.92H33.6098V86H30.2498V69.248H40.5938ZM44.6803 71.12C44.0883 71.12 43.5923 70.936 43.1923 70.568C42.8083 70.184 42.6163 69.712 42.6163 69.152C42.6163 68.592 42.8083 68.128 43.1923 67.76C43.5923 67.376 44.0883 67.184 44.6803 67.184C45.2723 67.184 45.7603 67.376 46.1443 67.76C46.5443 68.128 46.7443 68.592 46.7443 69.152C46.7443 69.712 46.5443 70.184 46.1443 70.568C45.7603 70.936 45.2723 71.12 44.6803 71.12ZM46.3363 72.704V86H42.9763V72.704H46.3363ZM53.568 75.464V81.896C53.568 82.344 53.672 82.672 53.88 82.88C54.104 83.072 54.472 83.168 54.984 83.168H56.544V86H54.432C51.6 86 50.184 84.624 50.184 81.872V75.464H48.6V72.704H50.184V69.416H53.568V72.704H56.544V75.464H53.568ZM71.5127 72.704V86H68.1287V84.32C67.6967 84.896 67.1287 85.352 66.4247 85.688C65.7367 86.008 64.9847 86.168 64.1687 86.168C63.1287 86.168 62.2087 85.952 61.4087 85.52C60.6087 85.072 59.9767 84.424 59.5127 83.576C59.0647 82.712 58.8407 81.688 58.8407 80.504V72.704H62.2007V80.024C62.2007 81.08 62.4647 81.896 62.9927 82.472C63.5207 83.032 64.2407 83.312 65.1527 83.312C66.0807 83.312 66.8087 83.032 67.3367 82.472C67.8647 81.896 68.1287 81.08 68.1287 80.024V72.704H71.5127ZM78.1879 74.768C78.6199 74.064 79.1799 73.512 79.8679 73.112C80.5719 72.712 81.3719 72.512 82.2679 72.512V76.04H81.3799C80.3239 76.04 79.5239 76.288 78.9799 76.784C78.4519 77.28 78.1879 78.144 78.1879 79.376V86H74.8279V72.704H78.1879V74.768Z" fill="white"/>
<path d="M13.481 120.202C12.869 120.202 12.347 119.992 11.915 119.572C11.495 119.14 11.285 118.618 11.285 118.006C11.285 117.382 11.495 116.86 11.915 116.44C12.347 116.008 12.869 115.792 13.481 115.792C14.105 115.792 14.633 116.008 15.065 116.44C15.497 116.86 15.713 117.382 15.713 118.006C15.713 118.618 15.497 119.14 15.065 119.572C14.633 119.992 14.105 120.202 13.481 120.202ZM32.292 111.454C33.66 111.454 34.842 111.712 35.838 112.228C36.846 112.732 37.614 113.458 38.142 114.406C38.682 115.354 38.952 116.47 38.952 117.754C38.952 119.038 38.682 120.154 38.142 121.102C37.614 122.038 36.846 122.758 35.838 123.262C34.842 123.754 33.66 124 32.292 124H28.386V111.454H32.292ZM32.292 122.65C33.912 122.65 35.148 122.224 36 121.372C36.852 120.508 37.278 119.302 37.278 117.754C37.278 116.194 36.846 114.976 35.982 114.1C35.13 113.224 33.9 112.786 32.292 112.786H30.024V122.65H32.292ZM50.1126 118.69C50.1126 119.002 50.0946 119.332 50.0586 119.68H42.1746C42.2346 120.652 42.5646 121.414 43.1646 121.966C43.7766 122.506 44.5146 122.776 45.3786 122.776C46.0866 122.776 46.6746 122.614 47.1426 122.29C47.6226 121.954 47.9586 121.51 48.1506 120.958H49.9146C49.6506 121.906 49.1226 122.68 48.3306 123.28C47.5386 123.868 46.5546 124.162 45.3786 124.162C44.4426 124.162 43.6026 123.952 42.8586 123.532C42.1266 123.112 41.5506 122.518 41.1306 121.75C40.7106 120.97 40.5006 120.07 40.5006 119.05C40.5006 118.03 40.7046 117.136 41.1126 116.368C41.5206 115.6 42.0906 115.012 42.8226 114.604C43.5666 114.184 44.4186 113.974 45.3786 113.974C46.3146 113.974 47.1426 114.178 47.8626 114.586C48.5826 114.994 49.1346 115.558 49.5186 116.278C49.9146 116.986 50.1126 117.79 50.1126 118.69ZM48.4206 118.348C48.4206 117.724 48.2826 117.19 48.0066 116.746C47.7306 116.29 47.3526 115.948 46.8726 115.72C46.4046 115.48 45.8826 115.36 45.3066 115.36C44.4786 115.36 43.7706 115.624 43.1826 116.152C42.6066 116.68 42.2766 117.412 42.1926 118.348H48.4206ZM55.7667 124.162C55.0107 124.162 54.3327 124.036 53.7327 123.784C53.1327 123.52 52.6587 123.16 52.3107 122.704C51.9627 122.236 51.7707 121.702 51.7347 121.102H53.4267C53.4747 121.594 53.7027 121.996 54.1107 122.308C54.5307 122.62 55.0767 122.776 55.7487 122.776C56.3727 122.776 56.8647 122.638 57.2247 122.362C57.5847 122.086 57.7647 121.738 57.7647 121.318C57.7647 120.886 57.5727 120.568 57.1887 120.364C56.8047 120.148 56.2107 119.938 55.4067 119.734C54.6747 119.542 54.0747 119.35 53.6067 119.158C53.1507 118.954 52.7547 118.66 52.4187 118.276C52.0947 117.88 51.9327 117.364 51.9327 116.728C51.9327 116.224 52.0827 115.762 52.3827 115.342C52.6827 114.922 53.1087 114.592 53.6607 114.352C54.2127 114.1 54.8427 113.974 55.5507 113.974C56.6427 113.974 57.5247 114.25 58.1967 114.802C58.8687 115.354 59.2287 116.11 59.2767 117.07H57.6387C57.6027 116.554 57.3927 116.14 57.0087 115.828C56.6367 115.516 56.1327 115.36 55.4967 115.36C54.9087 115.36 54.4407 115.486 54.0927 115.738C53.7447 115.99 53.5707 116.32 53.5707 116.728C53.5707 117.052 53.6727 117.322 53.8767 117.538C54.0927 117.742 54.3567 117.91 54.6687 118.042C54.9927 118.162 55.4367 118.3 56.0007 118.456C56.7087 118.648 57.2847 118.84 57.7287 119.032C58.1727 119.212 58.5507 119.488 58.8627 119.86C59.1867 120.232 59.3547 120.718 59.3667 121.318C59.3667 121.858 59.2167 122.344 58.9167 122.776C58.6167 123.208 58.1907 123.55 57.6387 123.802C57.0987 124.042 56.4747 124.162 55.7667 124.162ZM61.067 119.032C61.067 118.024 61.271 117.142 61.679 116.386C62.087 115.618 62.645 115.024 63.353 114.604C64.073 114.184 64.871 113.974 65.747 113.974C66.611 113.974 67.361 114.16 67.997 114.532C68.633 114.904 69.107 115.372 69.419 115.936V114.136H71.075V124H69.419V122.164C69.095 122.74 68.609 123.22 67.961 123.604C67.325 123.976 66.581 124.162 65.729 124.162C64.853 124.162 64.061 123.946 63.353 123.514C62.645 123.082 62.087 122.476 61.679 121.696C61.271 120.916 61.067 120.028 61.067 119.032ZM69.419 119.05C69.419 118.306 69.269 117.658 68.969 117.106C68.669 116.554 68.261 116.134 67.745 115.846C67.241 115.546 66.683 115.396 66.071 115.396C65.459 115.396 64.901 115.54 64.397 115.828C63.893 116.116 63.491 116.536 63.191 117.088C62.891 117.64 62.741 118.288 62.741 119.032C62.741 119.788 62.891 120.448 63.191 121.012C63.491 121.564 63.893 121.99 64.397 122.29C64.901 122.578 65.459 122.722 66.071 122.722C66.683 122.722 67.241 122.578 67.745 122.29C68.261 121.99 68.669 121.564 68.969 121.012C69.269 120.448 69.419 119.794 69.419 119.05ZM74.689 112.534C74.377 112.534 74.113 112.426 73.897 112.21C73.681 111.994 73.573 111.73 73.573 111.418C73.573 111.106 73.681 110.842 73.897 110.626C74.113 110.41 74.377 110.302 74.689 110.302C74.989 110.302 75.241 110.41 75.445 110.626C75.661 110.842 75.769 111.106 75.769 111.418C75.769 111.73 75.661 111.994 75.445 112.21C75.241 112.426 74.989 112.534 74.689 112.534ZM75.481 114.136V124H73.843V114.136H75.481ZM83.0787 113.956C84.2787 113.956 85.2507 114.322 85.9947 115.054C86.7387 115.774 87.1107 116.818 87.1107 118.186V124H85.4907V118.42C85.4907 117.436 85.2447 116.686 84.7527 116.17C84.2607 115.642 83.5887 115.378 82.7367 115.378C81.8727 115.378 81.1827 115.648 80.6667 116.188C80.1627 116.728 79.9107 117.514 79.9107 118.546V124H78.2727V114.136H79.9107V115.54C80.2347 115.036 80.6727 114.646 81.2247 114.37C81.7887 114.094 82.4067 113.956 83.0787 113.956ZM100.093 124L96.2232 119.644V124H94.5852V110.68H96.2232V118.51L100.021 114.136H102.307L97.6632 119.05L102.325 124H100.093ZM112.849 118.69C112.849 119.002 112.831 119.332 112.795 119.68H104.911C104.971 120.652 105.301 121.414 105.901 121.966C106.513 122.506 107.251 122.776 108.115 122.776C108.823 122.776 109.411 122.614 109.879 122.29C110.359 121.954 110.695 121.51 110.887 120.958H112.651C112.387 121.906 111.859 122.68 111.067 123.28C110.275 123.868 109.291 124.162 108.115 124.162C107.179 124.162 106.339 123.952 105.595 123.532C104.863 123.112 104.287 122.518 103.867 121.75C103.447 120.97 103.237 120.07 103.237 119.05C103.237 118.03 103.441 117.136 103.849 116.368C104.257 115.6 104.827 115.012 105.559 114.604C106.303 114.184 107.155 113.974 108.115 113.974C109.051 113.974 109.879 114.178 110.599 114.586C111.319 114.994 111.871 115.558 112.255 116.278C112.651 116.986 112.849 117.79 112.849 118.69ZM111.157 118.348C111.157 117.724 111.019 117.19 110.743 116.746C110.467 116.29 110.089 115.948 109.609 115.72C109.141 115.48 108.619 115.36 108.043 115.36C107.215 115.36 106.507 115.624 105.919 116.152C105.343 116.68 105.013 117.412 104.929 118.348H111.157ZM120.519 124L116.649 119.644V124H115.011V110.68H116.649V118.51L120.447 114.136H122.733L118.089 119.05L122.751 124H120.519ZM125.121 112.534C124.809 112.534 124.545 112.426 124.329 112.21C124.113 111.994 124.005 111.73 124.005 111.418C124.005 111.106 124.113 110.842 124.329 110.626C124.545 110.41 124.809 110.302 125.121 110.302C125.421 110.302 125.673 110.41 125.877 110.626C126.093 110.842 126.201 111.106 126.201 111.418C126.201 111.73 126.093 111.994 125.877 112.21C125.673 112.426 125.421 112.534 125.121 112.534ZM125.913 114.136V124H124.275V114.136H125.913ZM133.51 113.956C134.71 113.956 135.682 114.322 136.426 115.054C137.17 115.774 137.542 116.818 137.542 118.186V124H135.922V118.42C135.922 117.436 135.676 116.686 135.184 116.17C134.692 115.642 134.02 115.378 133.168 115.378C132.304 115.378 131.614 115.648 131.098 116.188C130.594 116.728 130.342 117.514 130.342 118.546V124H128.704V114.136H130.342V115.54C130.666 115.036 131.104 114.646 131.656 114.37C132.22 114.094 132.838 113.956 133.51 113.956ZM141.064 112.534C140.752 112.534 140.488 112.426 140.272 112.21C140.056 111.994 139.948 111.73 139.948 111.418C139.948 111.106 140.056 110.842 140.272 110.626C140.488 110.41 140.752 110.302 141.064 110.302C141.364 110.302 141.616 110.41 141.82 110.626C142.036 110.842 142.144 111.106 142.144 111.418C142.144 111.73 142.036 111.994 141.82 112.21C141.616 112.426 141.364 112.534 141.064 112.534ZM141.856 114.136V124H140.218V114.136H141.856ZM144.036 119.032C144.036 118.024 144.24 117.142 144.648 116.386C145.056 115.618 145.614 115.024 146.322 114.604C147.042 114.184 147.84 113.974 148.716 113.974C149.58 113.974 150.33 114.16 150.966 114.532C151.602 114.904 152.076 115.372 152.388 115.936V114.136H154.044V124H152.388V122.164C152.064 122.74 151.578 123.22 150.93 123.604C150.294 123.976 149.55 124.162 148.698 124.162C147.822 124.162 147.03 123.946 146.322 123.514C145.614 123.082 145.056 122.476 144.648 121.696C144.24 120.916 144.036 120.028 144.036 119.032ZM152.388 119.05C152.388 118.306 152.238 117.658 151.938 117.106C151.638 116.554 151.23 116.134 150.714 115.846C150.21 115.546 149.652 115.396 149.04 115.396C148.428 115.396 147.87 115.54 147.366 115.828C146.862 116.116 146.46 116.536 146.16 117.088C145.86 117.64 145.71 118.288 145.71 119.032C145.71 119.788 145.86 120.448 146.16 121.012C146.46 121.564 146.862 121.99 147.366 122.29C147.87 122.578 148.428 122.722 149.04 122.722C149.652 122.722 150.21 122.578 150.714 122.29C151.23 121.99 151.638 121.564 151.938 121.012C152.238 120.448 152.388 119.794 152.388 119.05ZM161.618 113.956C162.818 113.956 163.79 114.322 164.534 115.054C165.278 115.774 165.65 116.818 165.65 118.186V124H164.03V118.42C164.03 117.436 163.784 116.686 163.292 116.17C162.8 115.642 162.128 115.378 161.276 115.378C160.412 115.378 159.722 115.648 159.206 116.188C158.702 116.728 158.45 117.514 158.45 118.546V124H156.812V114.136H158.45V115.54C158.774 115.036 159.212 114.646 159.764 114.37C160.328 114.094 160.946 113.956 161.618 113.956ZM172.512 119.032C172.512 118.024 172.716 117.142 173.124 116.386C173.532 115.618 174.09 115.024 174.798 114.604C175.518 114.184 176.322 113.974 177.21 113.974C177.978 113.974 178.692 114.154 179.352 114.514C180.012 114.862 180.516 115.324 180.864 115.9V110.68H182.52V124H180.864V122.146C180.54 122.734 180.06 123.22 179.424 123.604C178.788 123.976 178.044 124.162 177.192 124.162C176.316 124.162 175.518 123.946 174.798 123.514C174.09 123.082 173.532 122.476 173.124 121.696C172.716 120.916 172.512 120.028 172.512 119.032ZM180.864 119.05C180.864 118.306 180.714 117.658 180.414 117.106C180.114 116.554 179.706 116.134 179.19 115.846C178.686 115.546 178.128 115.396 177.516 115.396C176.904 115.396 176.346 115.54 175.842 115.828C175.338 116.116 174.936 116.536 174.636 117.088C174.336 117.64 174.186 118.288 174.186 119.032C174.186 119.788 174.336 120.448 174.636 121.012C174.936 121.564 175.338 121.99 175.842 122.29C176.346 122.578 176.904 122.722 177.516 122.722C178.128 122.722 178.686 122.578 179.19 122.29C179.706 121.99 180.114 121.564 180.414 121.012C180.714 120.448 180.864 119.794 180.864 119.05ZM184.676 119.032C184.676 118.024 184.88 117.142 185.288 116.386C185.696 115.618 186.254 115.024 186.962 114.604C187.682 114.184 188.48 113.974 189.356 113.974C190.22 113.974 190.97 114.16 191.606 114.532C192.242 114.904 192.716 115.372 193.028 115.936V114.136H194.684V124H193.028V122.164C192.704 122.74 192.218 123.22 191.57 123.604C190.934 123.976 190.19 124.162 189.338 124.162C188.462 124.162 187.67 123.946 186.962 123.514C186.254 123.082 185.696 122.476 185.288 121.696C184.88 120.916 184.676 120.028 184.676 119.032ZM193.028 119.05C193.028 118.306 192.878 117.658 192.578 117.106C192.278 116.554 191.87 116.134 191.354 115.846C190.85 115.546 190.292 115.396 189.68 115.396C189.068 115.396 188.51 115.54 188.006 115.828C187.502 116.116 187.1 116.536 186.8 117.088C186.5 117.64 186.35 118.288 186.35 119.032C186.35 119.788 186.5 120.448 186.8 121.012C187.1 121.564 187.502 121.99 188.006 122.29C188.51 122.578 189.068 122.722 189.68 122.722C190.292 122.722 190.85 122.578 191.354 122.29C191.87 121.99 192.278 121.564 192.578 121.012C192.878 120.448 193.028 119.794 193.028 119.05ZM202.258 113.956C203.458 113.956 204.43 114.322 205.174 115.054C205.918 115.774 206.29 116.818 206.29 118.186V124H204.67V118.42C204.67 117.436 204.424 116.686 203.932 116.17C203.44 115.642 202.768 115.378 201.916 115.378C201.052 115.378 200.362 115.648 199.846 116.188C199.342 116.728 199.09 117.514 199.09 118.546V124H197.452V114.136H199.09V115.54C199.414 115.036 199.852 114.646 200.404 114.37C200.968 114.094 201.586 113.956 202.258 113.956ZM225.627 113.956C226.395 113.956 227.079 114.118 227.679 114.442C228.279 114.754 228.753 115.228 229.101 115.864C229.449 116.5 229.623 117.274 229.623 118.186V124H228.003V118.42C228.003 117.436 227.757 116.686 227.265 116.17C226.785 115.642 226.131 115.378 225.303 115.378C224.451 115.378 223.773 115.654 223.269 116.206C222.765 116.746 222.513 117.532 222.513 118.564V124H220.893V118.42C220.893 117.436 220.647 116.686 220.155 116.17C219.675 115.642 219.021 115.378 218.193 115.378C217.341 115.378 216.663 115.654 216.159 116.206C215.655 116.746 215.403 117.532 215.403 118.564V124H213.765V114.136H215.403V115.558C215.727 115.042 216.159 114.646 216.699 114.37C217.251 114.094 217.857 113.956 218.517 113.956C219.345 113.956 220.077 114.142 220.713 114.514C221.349 114.886 221.823 115.432 222.135 116.152C222.411 115.456 222.867 114.916 223.503 114.532C224.139 114.148 224.847 113.956 225.627 113.956ZM241.31 118.69C241.31 119.002 241.292 119.332 241.256 119.68H233.372C233.432 120.652 233.762 121.414 234.362 121.966C234.974 122.506 235.712 122.776 236.576 122.776C237.284 122.776 237.872 122.614 238.34 122.29C238.82 121.954 239.156 121.51 239.348 120.958H241.112C240.848 121.906 240.32 122.68 239.528 123.28C238.736 123.868 237.752 124.162 236.576 124.162C235.64 124.162 234.8 123.952 234.056 123.532C233.324 123.112 232.748 122.518 232.328 121.75C231.908 120.97 231.698 120.07 231.698 119.05C231.698 118.03 231.902 117.136 232.31 116.368C232.718 115.6 233.288 115.012 234.02 114.604C234.764 114.184 235.616 113.974 236.576 113.974C237.512 113.974 238.34 114.178 239.06 114.586C239.78 114.994 240.332 115.558 240.716 116.278C241.112 116.986 241.31 117.79 241.31 118.69ZM239.618 118.348C239.618 117.724 239.48 117.19 239.204 116.746C238.928 116.29 238.55 115.948 238.07 115.72C237.602 115.48 237.08 115.36 236.504 115.36C235.676 115.36 234.968 115.624 234.38 116.152C233.804 116.68 233.474 117.412 233.39 118.348H239.618ZM256.612 114.136L253.534 124H251.842L249.466 116.17L247.09 124H245.398L242.302 114.136H243.976L246.244 122.416L248.692 114.136H250.366L252.76 122.434L254.992 114.136H256.612ZM257.626 119.032C257.626 118.024 257.83 117.142 258.238 116.386C258.646 115.618 259.204 115.024 259.912 114.604C260.632 114.184 261.43 113.974 262.306 113.974C263.17 113.974 263.92 114.16 264.556 114.532C265.192 114.904 265.666 115.372 265.978 115.936V114.136H267.634V124H265.978V122.164C265.654 122.74 265.168 123.22 264.52 123.604C263.884 123.976 263.14 124.162 262.288 124.162C261.412 124.162 260.62 123.946 259.912 123.514C259.204 123.082 258.646 122.476 258.238 121.696C257.83 120.916 257.626 120.028 257.626 119.032ZM265.978 119.05C265.978 118.306 265.828 117.658 265.528 117.106C265.228 116.554 264.82 116.134 264.304 115.846C263.8 115.546 263.242 115.396 262.63 115.396C262.018 115.396 261.46 115.54 260.956 115.828C260.452 116.116 260.05 116.536 259.75 117.088C259.45 117.64 259.3 118.288 259.3 119.032C259.3 119.788 259.45 120.448 259.75 121.012C260.05 121.564 260.452 121.99 260.956 122.29C261.46 122.578 262.018 122.722 262.63 122.722C263.242 122.722 263.8 122.578 264.304 122.29C264.82 121.99 265.228 121.564 265.528 121.012C265.828 120.448 265.978 119.794 265.978 119.05ZM275.298 113.956C276.042 113.956 276.714 114.118 277.314 114.442C277.914 114.754 278.382 115.228 278.718 115.864C279.066 116.5 279.24 117.274 279.24 118.186V124H277.62V118.42C277.62 117.436 277.374 116.686 276.882 116.17C276.39 115.642 275.718 115.378 274.866 115.378C274.002 115.378 273.312 115.648 272.796 116.188C272.292 116.728 272.04 117.514 272.04 118.546V124H270.402V110.68H272.04V115.54C272.364 115.036 272.808 114.646 273.372 114.37C273.948 114.094 274.59 113.956 275.298 113.956ZM283.607 121.732L281.591 126.574H280.493L281.807 121.732H283.607ZM289.67 119.032C289.67 118.024 289.874 117.142 290.282 116.386C290.69 115.618 291.248 115.024 291.956 114.604C292.676 114.184 293.48 113.974 294.368 113.974C295.136 113.974 295.85 114.154 296.51 114.514C297.17 114.862 297.674 115.324 298.022 115.9V110.68H299.678V124H298.022V122.146C297.698 122.734 297.218 123.22 296.582 123.604C295.946 123.976 295.202 124.162 294.35 124.162C293.474 124.162 292.676 123.946 291.956 123.514C291.248 123.082 290.69 122.476 290.282 121.696C289.874 120.916 289.67 120.028 289.67 119.032ZM298.022 119.05C298.022 118.306 297.872 117.658 297.572 117.106C297.272 116.554 296.864 116.134 296.348 115.846C295.844 115.546 295.286 115.396 294.674 115.396C294.062 115.396 293.504 115.54 293 115.828C292.496 116.116 292.094 116.536 291.794 117.088C291.494 117.64 291.344 118.288 291.344 119.032C291.344 119.788 291.494 120.448 291.794 121.012C292.094 121.564 292.496 121.99 293 122.29C293.504 122.578 294.062 122.722 294.674 122.722C295.286 122.722 295.844 122.578 296.348 122.29C296.864 121.99 297.272 121.564 297.572 121.012C297.872 120.448 298.022 119.794 298.022 119.05ZM311.447 118.69C311.447 119.002 311.429 119.332 311.393 119.68H303.509C303.569 120.652 303.899 121.414 304.499 121.966C305.111 122.506 305.849 122.776 306.713 122.776C307.421 122.776 308.009 122.614 308.477 122.29C308.957 121.954 309.293 121.51 309.485 120.958H311.249C310.985 121.906 310.457 122.68 309.665 123.28C308.873 123.868 307.889 124.162 306.713 124.162C305.777 124.162 304.937 123.952 304.193 123.532C303.461 123.112 302.885 122.518 302.465 121.75C302.045 120.97 301.835 120.07 301.835 119.05C301.835 118.03 302.039 117.136 302.447 116.368C302.855 115.6 303.425 115.012 304.157 114.604C304.901 114.184 305.753 113.974 306.713 113.974C307.649 113.974 308.477 114.178 309.197 114.586C309.917 114.994 310.469 115.558 310.853 116.278C311.249 116.986 311.447 117.79 311.447 118.69ZM309.755 118.348C309.755 117.724 309.617 117.19 309.341 116.746C309.065 116.29 308.687 115.948 308.207 115.72C307.739 115.48 307.217 115.36 306.641 115.36C305.813 115.36 305.105 115.624 304.517 116.152C303.941 116.68 303.611 117.412 303.527 118.348H309.755ZM318.415 113.956C319.615 113.956 320.587 114.322 321.331 115.054C322.075 115.774 322.447 116.818 322.447 118.186V124H320.827V118.42C320.827 117.436 320.581 116.686 320.089 116.17C319.597 115.642 318.925 115.378 318.073 115.378C317.209 115.378 316.519 115.648 316.003 116.188C315.499 116.728 315.247 117.514 315.247 118.546V124H313.609V114.136H315.247V115.54C315.571 115.036 316.009 114.646 316.561 114.37C317.125 114.094 317.743 113.956 318.415 113.956ZM329.19 113.974C330.042 113.974 330.786 114.16 331.422 114.532C332.07 114.904 332.55 115.372 332.862 115.936V114.136H334.518V124.216C334.518 125.116 334.326 125.914 333.942 126.61C333.558 127.318 333.006 127.87 332.286 128.266C331.578 128.662 330.75 128.86 329.802 128.86C328.506 128.86 327.426 128.554 326.562 127.942C325.698 127.33 325.188 126.496 325.032 125.44H326.652C326.832 126.04 327.204 126.52 327.768 126.88C328.332 127.252 329.01 127.438 329.802 127.438C330.702 127.438 331.434 127.156 331.998 126.592C332.574 126.028 332.862 125.236 332.862 124.216V122.146C332.538 122.722 332.058 123.202 331.422 123.586C330.786 123.97 330.042 124.162 329.19 124.162C328.314 124.162 327.516 123.946 326.796 123.514C326.088 123.082 325.53 122.476 325.122 121.696C324.714 120.916 324.51 120.028 324.51 119.032C324.51 118.024 324.714 117.142 325.122 116.386C325.53 115.618 326.088 115.024 326.796 114.604C327.516 114.184 328.314 113.974 329.19 113.974ZM332.862 119.05C332.862 118.306 332.712 117.658 332.412 117.106C332.112 116.554 331.704 116.134 331.188 115.846C330.684 115.546 330.126 115.396 329.514 115.396C328.902 115.396 328.344 115.54 327.84 115.828C327.336 116.116 326.934 116.536 326.634 117.088C326.334 117.64 326.184 118.288 326.184 119.032C326.184 119.788 326.334 120.448 326.634 121.012C326.934 121.564 327.336 121.99 327.84 122.29C328.344 122.578 328.902 122.722 329.514 122.722C330.126 122.722 330.684 122.578 331.188 122.29C331.704 121.99 332.112 121.564 332.412 121.012C332.712 120.448 332.862 119.794 332.862 119.05ZM336.674 119.032C336.674 118.024 336.878 117.142 337.286 116.386C337.694 115.618 338.252 115.024 338.96 114.604C339.68 114.184 340.478 113.974 341.354 113.974C342.218 113.974 342.968 114.16 343.604 114.532C344.24 114.904 344.714 115.372 345.026 115.936V114.136H346.682V124H345.026V122.164C344.702 122.74 344.216 123.22 343.568 123.604C342.932 123.976 342.188 124.162 341.336 124.162C340.46 124.162 339.668 123.946 338.96 123.514C338.252 123.082 337.694 122.476 337.286 121.696C336.878 120.916 336.674 120.028 336.674 119.032ZM345.026 119.05C345.026 118.306 344.876 117.658 344.576 117.106C344.276 116.554 343.868 116.134 343.352 115.846C342.848 115.546 342.29 115.396 341.678 115.396C341.066 115.396 340.508 115.54 340.004 115.828C339.5 116.116 339.098 116.536 338.798 117.088C338.498 117.64 338.348 118.288 338.348 119.032C338.348 119.788 338.498 120.448 338.798 121.012C339.098 121.564 339.5 121.99 340.004 122.29C340.508 122.578 341.066 122.722 341.678 122.722C342.29 122.722 342.848 122.578 343.352 122.29C343.868 121.99 344.276 121.564 344.576 121.012C344.876 120.448 345.026 119.794 345.026 119.05ZM354.256 113.956C355.456 113.956 356.428 114.322 357.172 115.054C357.916 115.774 358.288 116.818 358.288 118.186V124H356.668V118.42C356.668 117.436 356.422 116.686 355.93 116.17C355.438 115.642 354.766 115.378 353.914 115.378C353.05 115.378 352.36 115.648 351.844 116.188C351.34 116.728 351.088 117.514 351.088 118.546V124H349.45V114.136H351.088V115.54C351.412 115.036 351.85 114.646 352.402 114.37C352.966 114.094 353.584 113.956 354.256 113.956ZM367.401 110.68V124H365.763V110.68H367.401ZM369.581 119.032C369.581 118.024 369.785 117.142 370.193 116.386C370.601 115.618 371.159 115.024 371.867 114.604C372.587 114.184 373.385 113.974 374.261 113.974C375.125 113.974 375.875 114.16 376.511 114.532C377.147 114.904 377.621 115.372 377.933 115.936V114.136H379.589V124H377.933V122.164C377.609 122.74 377.123 123.22 376.475 123.604C375.839 123.976 375.095 124.162 374.243 124.162C373.367 124.162 372.575 123.946 371.867 123.514C371.159 123.082 370.601 122.476 370.193 121.696C369.785 120.916 369.581 120.028 369.581 119.032ZM377.933 119.05C377.933 118.306 377.783 117.658 377.483 117.106C377.183 116.554 376.775 116.134 376.259 115.846C375.755 115.546 375.197 115.396 374.585 115.396C373.973 115.396 373.415 115.54 372.911 115.828C372.407 116.116 372.005 116.536 371.705 117.088C371.405 117.64 371.255 118.288 371.255 119.032C371.255 119.788 371.405 120.448 371.705 121.012C372.005 121.564 372.407 121.99 372.911 122.29C373.415 122.578 373.973 122.722 374.585 122.722C375.197 122.722 375.755 122.578 376.259 122.29C376.775 121.99 377.183 121.564 377.483 121.012C377.783 120.448 377.933 119.794 377.933 119.05ZM390.853 114.136L384.913 128.644H383.221L385.165 123.892L381.187 114.136H383.005L386.101 122.128L389.161 114.136H390.853ZM391.887 119.032C391.887 118.024 392.091 117.142 392.499 116.386C392.907 115.618 393.465 115.024 394.173 114.604C394.893 114.184 395.691 113.974 396.567 113.974C397.431 113.974 398.181 114.16 398.817 114.532C399.453 114.904 399.927 115.372 400.239 115.936V114.136H401.895V124H400.239V122.164C399.915 122.74 399.429 123.22 398.781 123.604C398.145 123.976 397.401 124.162 396.549 124.162C395.673 124.162 394.881 123.946 394.173 123.514C393.465 123.082 392.907 122.476 392.499 121.696C392.091 120.916 391.887 120.028 391.887 119.032ZM400.239 119.05C400.239 118.306 400.089 117.658 399.789 117.106C399.489 116.554 399.081 116.134 398.565 115.846C398.061 115.546 397.503 115.396 396.891 115.396C396.279 115.396 395.721 115.54 395.217 115.828C394.713 116.116 394.311 116.536 394.011 117.088C393.711 117.64 393.561 118.288 393.561 119.032C393.561 119.788 393.711 120.448 394.011 121.012C394.311 121.564 394.713 121.99 395.217 122.29C395.721 122.578 396.279 122.722 396.891 122.722C397.503 122.722 398.061 122.578 398.565 122.29C399.081 121.99 399.489 121.564 399.789 121.012C400.089 120.448 400.239 119.794 400.239 119.05ZM406.301 115.738C406.589 115.174 406.997 114.736 407.525 114.424C408.065 114.112 408.719 113.956 409.487 113.956V115.648H409.055C407.219 115.648 406.301 116.644 406.301 118.636V124H404.663V114.136H406.301V115.738ZM419.669 124.162C418.913 124.162 418.235 124.036 417.635 123.784C417.035 123.52 416.561 123.16 416.213 122.704C415.865 122.236 415.673 121.702 415.637 121.102H417.329C417.377 121.594 417.605 121.996 418.013 122.308C418.433 122.62 418.979 122.776 419.651 122.776C420.275 122.776 420.767 122.638 421.127 122.362C421.487 122.086 421.667 121.738 421.667 121.318C421.667 120.886 421.475 120.568 421.091 120.364C420.707 120.148 420.113 119.938 419.309 119.734C418.577 119.542 417.977 119.35 417.509 119.158C417.053 118.954 416.657 118.66 416.321 118.276C415.997 117.88 415.835 117.364 415.835 116.728C415.835 116.224 415.985 115.762 416.285 115.342C416.585 114.922 417.011 114.592 417.563 114.352C418.115 114.1 418.745 113.974 419.453 113.974C420.545 113.974 421.427 114.25 422.099 114.802C422.771 115.354 423.131 116.11 423.179 117.07H421.541C421.505 116.554 421.295 116.14 420.911 115.828C420.539 115.516 420.035 115.36 419.399 115.36C418.811 115.36 418.343 115.486 417.995 115.738C417.647 115.99 417.473 116.32 417.473 116.728C417.473 117.052 417.575 117.322 417.779 117.538C417.995 117.742 418.259 117.91 418.571 118.042C418.895 118.162 419.339 118.3 419.903 118.456C420.611 118.648 421.187 118.84 421.631 119.032C422.075 119.212 422.453 119.488 422.765 119.86C423.089 120.232 423.257 120.718 423.269 121.318C423.269 121.858 423.119 122.344 422.819 122.776C422.519 123.208 422.093 123.55 421.541 123.802C421.001 124.042 420.377 124.162 419.669 124.162ZM434.581 118.69C434.581 119.002 434.563 119.332 434.527 119.68H426.643C426.703 120.652 427.033 121.414 427.633 121.966C428.245 122.506 428.983 122.776 429.847 122.776C430.555 122.776 431.143 122.614 431.611 122.29C432.091 121.954 432.427 121.51 432.619 120.958H434.383C434.119 121.906 433.591 122.68 432.799 123.28C432.007 123.868 431.023 124.162 429.847 124.162C428.911 124.162 428.071 123.952 427.327 123.532C426.595 123.112 426.019 122.518 425.599 121.75C425.179 120.97 424.969 120.07 424.969 119.05C424.969 118.03 425.173 117.136 425.581 116.368C425.989 115.6 426.559 115.012 427.291 114.604C428.035 114.184 428.887 113.974 429.847 113.974C430.783 113.974 431.611 114.178 432.331 114.586C433.051 114.994 433.603 115.558 433.987 116.278C434.383 116.986 434.581 117.79 434.581 118.69ZM432.889 118.348C432.889 117.724 432.751 117.19 432.475 116.746C432.199 116.29 431.821 115.948 431.341 115.72C430.873 115.48 430.351 115.36 429.775 115.36C428.947 115.36 428.239 115.624 427.651 116.152C427.075 116.68 426.745 117.412 426.661 118.348H432.889ZM441.549 113.956C442.749 113.956 443.721 114.322 444.465 115.054C445.209 115.774 445.581 116.818 445.581 118.186V124H443.961V118.42C443.961 117.436 443.715 116.686 443.223 116.17C442.731 115.642 442.059 115.378 441.207 115.378C440.343 115.378 439.653 115.648 439.137 116.188C438.633 116.728 438.381 117.514 438.381 118.546V124H436.743V114.136H438.381V115.54C438.705 115.036 439.143 114.646 439.695 114.37C440.259 114.094 440.877 113.956 441.549 113.956ZM450.255 115.486V121.3C450.255 121.78 450.357 122.122 450.561 122.326C450.765 122.518 451.119 122.614 451.623 122.614H452.829V124H451.353C450.441 124 449.757 123.79 449.301 123.37C448.845 122.95 448.617 122.26 448.617 121.3V115.486H447.339V114.136H448.617V111.652H450.255V114.136H452.829V115.486H450.255ZM463.562 114.136V124H461.924V122.542C461.612 123.046 461.174 123.442 460.61 123.73C460.058 124.006 459.446 124.144 458.774 124.144C458.006 124.144 457.316 123.988 456.704 123.676C456.092 123.352 455.606 122.872 455.246 122.236C454.898 121.6 454.724 120.826 454.724 119.914V114.136H456.344V119.698C456.344 120.67 456.59 121.42 457.082 121.948C457.574 122.464 458.246 122.722 459.098 122.722C459.974 122.722 460.664 122.452 461.168 121.912C461.672 121.372 461.924 120.586 461.924 119.554V114.136H463.562ZM471.223 113.956C471.967 113.956 472.639 114.118 473.239 114.442C473.839 114.754 474.307 115.228 474.643 115.864C474.991 116.5 475.165 117.274 475.165 118.186V124H473.545V118.42C473.545 117.436 473.299 116.686 472.807 116.17C472.315 115.642 471.643 115.378 470.791 115.378C469.927 115.378 469.237 115.648 468.721 116.188C468.217 116.728 467.965 117.514 467.965 118.546V124H466.327V110.68H467.965V115.54C468.289 115.036 468.733 114.646 469.297 114.37C469.873 114.094 470.515 113.956 471.223 113.956ZM29.232 139.534C28.92 139.534 28.656 139.426 28.44 139.21C28.224 138.994 28.116 138.73 28.116 138.418C28.116 138.106 28.224 137.842 28.44 137.626C28.656 137.41 28.92 137.302 29.232 137.302C29.532 137.302 29.784 137.41 29.988 137.626C30.204 137.842 30.312 138.106 30.312 138.418C30.312 138.73 30.204 138.994 29.988 139.21C29.784 139.426 29.532 139.534 29.232 139.534ZM30.024 141.136V151H28.386V141.136H30.024ZM37.6217 140.956C38.8217 140.956 39.7937 141.322 40.5377 142.054C41.2817 142.774 41.6537 143.818 41.6537 145.186V151H40.0337V145.42C40.0337 144.436 39.7877 143.686 39.2957 143.17C38.8037 142.642 38.1317 142.378 37.2797 142.378C36.4157 142.378 35.7257 142.648 35.2097 143.188C34.7057 143.728 34.4537 144.514 34.4537 145.546V151H32.8157V141.136H34.4537V142.54C34.7777 142.036 35.2157 141.646 35.7677 141.37C36.3317 141.094 36.9497 140.956 37.6217 140.956ZM46.3274 142.486V148.3C46.3274 148.78 46.4294 149.122 46.6334 149.326C46.8374 149.518 47.1914 149.614 47.6954 149.614H48.9014V151H47.4254C46.5134 151 45.8294 150.79 45.3734 150.37C44.9174 149.95 44.6894 149.26 44.6894 148.3V142.486H43.4114V141.136H44.6894V138.652H46.3274V141.136H48.9014V142.486H46.3274ZM59.886 145.69C59.886 146.002 59.868 146.332 59.832 146.68H51.948C52.008 147.652 52.338 148.414 52.938 148.966C53.55 149.506 54.288 149.776 55.152 149.776C55.86 149.776 56.448 149.614 56.916 149.29C57.396 148.954 57.732 148.51 57.924 147.958H59.688C59.424 148.906 58.896 149.68 58.104 150.28C57.312 150.868 56.328 151.162 55.152 151.162C54.216 151.162 53.376 150.952 52.632 150.532C51.9 150.112 51.324 149.518 50.904 148.75C50.484 147.97 50.274 147.07 50.274 146.05C50.274 145.03 50.478 144.136 50.886 143.368C51.294 142.6 51.864 142.012 52.596 141.604C53.34 141.184 54.192 140.974 55.152 140.974C56.088 140.974 56.916 141.178 57.636 141.586C58.356 141.994 58.908 142.558 59.292 143.278C59.688 143.986 59.886 144.79 59.886 145.69ZM58.194 145.348C58.194 144.724 58.056 144.19 57.78 143.746C57.504 143.29 57.126 142.948 56.646 142.72C56.178 142.48 55.656 142.36 55.08 142.36C54.252 142.36 53.544 142.624 52.956 143.152C52.38 143.68 52.05 144.412 51.966 145.348H58.194ZM63.6861 142.738C63.9741 142.174 64.3821 141.736 64.9101 141.424C65.4501 141.112 66.1041 140.956 66.8721 140.956V142.648H66.4401C64.6041 142.648 63.6861 143.644 63.6861 145.636V151H62.0481V141.136H63.6861V142.738ZM68.151 146.032C68.151 145.024 68.355 144.142 68.763 143.386C69.171 142.618 69.729 142.024 70.437 141.604C71.157 141.184 71.955 140.974 72.831 140.974C73.695 140.974 74.445 141.16 75.081 141.532C75.717 141.904 76.191 142.372 76.503 142.936V141.136H78.159V151H76.503V149.164C76.179 149.74 75.693 150.22 75.045 150.604C74.409 150.976 73.665 151.162 72.813 151.162C71.937 151.162 71.145 150.946 70.437 150.514C69.729 150.082 69.171 149.476 68.763 148.696C68.355 147.916 68.151 147.028 68.151 146.032ZM76.503 146.05C76.503 145.306 76.353 144.658 76.053 144.106C75.753 143.554 75.345 143.134 74.829 142.846C74.325 142.546 73.767 142.396 73.155 142.396C72.543 142.396 71.985 142.54 71.481 142.828C70.977 143.116 70.575 143.536 70.275 144.088C69.975 144.64 69.825 145.288 69.825 146.032C69.825 146.788 69.975 147.448 70.275 148.012C70.575 148.564 70.977 148.99 71.481 149.29C71.985 149.578 72.543 149.722 73.155 149.722C73.767 149.722 74.325 149.578 74.829 149.29C75.345 148.99 75.753 148.564 76.053 148.012C76.353 147.448 76.503 146.794 76.503 146.05ZM86.435 151L82.565 146.644V151H80.927V137.68H82.565V145.51L86.363 141.136H88.649L84.005 146.05L88.667 151H86.435ZM92.1887 142.486V148.3C92.1887 148.78 92.2907 149.122 92.4947 149.326C92.6987 149.518 93.0527 149.614 93.5567 149.614H94.7627V151H93.2867C92.3747 151 91.6907 150.79 91.2347 150.37C90.7787 149.95 90.5507 149.26 90.5507 148.3V142.486H89.2727V141.136H90.5507V138.652H92.1887V141.136H94.7627V142.486H92.1887ZM97.5933 139.534C97.2813 139.534 97.0173 139.426 96.8013 139.21C96.5853 138.994 96.4773 138.73 96.4773 138.418C96.4773 138.106 96.5853 137.842 96.8013 137.626C97.0173 137.41 97.2813 137.302 97.5933 137.302C97.8933 137.302 98.1453 137.41 98.3493 137.626C98.5653 137.842 98.6733 138.106 98.6733 138.418C98.6733 138.73 98.5653 138.994 98.3493 139.21C98.1453 139.426 97.8933 139.534 97.5933 139.534ZM98.3853 141.136V151H96.7473V141.136H98.3853ZM105.191 142.486H103.121V151H101.483V142.486H100.205V141.136H101.483V140.434C101.483 139.33 101.765 138.526 102.329 138.022C102.905 137.506 103.823 137.248 105.083 137.248V138.616C104.363 138.616 103.853 138.76 103.553 139.048C103.265 139.324 103.121 139.786 103.121 140.434V141.136H105.191V142.486Z" fill="white"/>
<path d="M13.481 182.202C12.869 182.202 12.347 181.992 11.915 181.572C11.495 181.14 11.285 180.618 11.285 180.006C11.285 179.382 11.495 178.86 11.915 178.44C12.347 178.008 12.869 177.792 13.481 177.792C14.105 177.792 14.633 178.008 15.065 178.44C15.497 178.86 15.713 179.382 15.713 180.006C15.713 180.618 15.497 181.14 15.065 181.572C14.633 181.992 14.105 182.202 13.481 182.202ZM35.478 173.454V174.786H30.024V179.016H34.452V180.348H30.024V186H28.386V173.454H35.478ZM38.3023 174.534C37.9903 174.534 37.7263 174.426 37.5103 174.21C37.2943 173.994 37.1863 173.73 37.1863 173.418C37.1863 173.106 37.2943 172.842 37.5103 172.626C37.7263 172.41 37.9903 172.302 38.3023 172.302C38.6023 172.302 38.8543 172.41 39.0583 172.626C39.2743 172.842 39.3823 173.106 39.3823 173.418C39.3823 173.73 39.2743 173.994 39.0583 174.21C38.8543 174.426 38.6023 174.534 38.3023 174.534ZM39.0943 176.136V186H37.4563V176.136H39.0943ZM43.884 177.486V183.3C43.884 183.78 43.986 184.122 44.19 184.326C44.394 184.518 44.748 184.614 45.252 184.614H46.458V186H44.982C44.07 186 43.386 185.79 42.93 185.37C42.474 184.95 42.246 184.26 42.246 183.3V177.486H40.968V176.136H42.246V173.652H43.884V176.136H46.458V177.486H43.884ZM57.1906 176.136V186H55.5526V184.542C55.2406 185.046 54.8026 185.442 54.2386 185.73C53.6866 186.006 53.0746 186.144 52.4026 186.144C51.6346 186.144 50.9446 185.988 50.3326 185.676C49.7206 185.352 49.2346 184.872 48.8746 184.236C48.5266 183.6 48.3526 182.826 48.3526 181.914V176.136H49.9726V181.698C49.9726 182.67 50.2186 183.42 50.7106 183.948C51.2026 184.464 51.8746 184.722 52.7266 184.722C53.6026 184.722 54.2926 184.452 54.7966 183.912C55.3006 183.372 55.5526 182.586 55.5526 181.554V176.136H57.1906ZM61.5943 177.738C61.8823 177.174 62.2903 176.736 62.8183 176.424C63.3583 176.112 64.0123 175.956 64.7803 175.956V177.648H64.3483C62.5123 177.648 61.5943 178.644 61.5943 180.636V186H59.9563V176.136H61.5943V177.738ZM70.858 181.05C70.858 180.03 71.062 179.142 71.47 178.386C71.878 177.618 72.442 177.024 73.162 176.604C73.894 176.184 74.728 175.974 75.664 175.974C76.876 175.974 77.872 176.268 78.652 176.856C79.444 177.444 79.966 178.26 80.218 179.304H78.454C78.286 178.704 77.956 178.23 77.464 177.882C76.984 177.534 76.384 177.36 75.664 177.36C74.728 177.36 73.972 177.684 73.396 178.332C72.82 178.968 72.532 179.874 72.532 181.05C72.532 182.238 72.82 183.156 73.396 183.804C73.972 184.452 74.728 184.776 75.664 184.776C76.384 184.776 76.984 184.608 77.464 184.272C77.944 183.936 78.274 183.456 78.454 182.832H80.218C79.954 183.84 79.426 184.65 78.634 185.262C77.842 185.862 76.852 186.162 75.664 186.162C74.728 186.162 73.894 185.952 73.162 185.532C72.442 185.112 71.878 184.518 71.47 183.75C71.062 182.982 70.858 182.082 70.858 181.05ZM86.7056 186.162C85.7816 186.162 84.9416 185.952 84.1856 185.532C83.4416 185.112 82.8536 184.518 82.4216 183.75C82.0016 182.97 81.7916 182.07 81.7916 181.05C81.7916 180.042 82.0076 179.154 82.4396 178.386C82.8836 177.606 83.4836 177.012 84.2396 176.604C84.9956 176.184 85.8416 175.974 86.7776 175.974C87.7136 175.974 88.5596 176.184 89.3156 176.604C90.0716 177.012 90.6656 177.6 91.0976 178.368C91.5416 179.136 91.7636 180.03 91.7636 181.05C91.7636 182.07 91.5356 182.97 91.0796 183.75C90.6356 184.518 90.0296 185.112 89.2616 185.532C88.4936 185.952 87.6416 186.162 86.7056 186.162ZM86.7056 184.722C87.2936 184.722 87.8456 184.584 88.3616 184.308C88.8776 184.032 89.2916 183.618 89.6036 183.066C89.9276 182.514 90.0896 181.842 90.0896 181.05C90.0896 180.258 89.9336 179.586 89.6216 179.034C89.3096 178.482 88.9016 178.074 88.3976 177.81C87.8936 177.534 87.3476 177.396 86.7596 177.396C86.1596 177.396 85.6076 177.534 85.1036 177.81C84.6116 178.074 84.2156 178.482 83.9156 179.034C83.6156 179.586 83.4656 180.258 83.4656 181.05C83.4656 181.854 83.6096 182.532 83.8976 183.084C84.1976 183.636 84.5936 184.05 85.0856 184.326C85.5776 184.59 86.1176 184.722 86.7056 184.722ZM98.2193 186.162C97.2953 186.162 96.4553 185.952 95.6993 185.532C94.9553 185.112 94.3673 184.518 93.9353 183.75C93.5153 182.97 93.3053 182.07 93.3053 181.05C93.3053 180.042 93.5213 179.154 93.9533 178.386C94.3973 177.606 94.9973 177.012 95.7533 176.604C96.5093 176.184 97.3553 175.974 98.2913 175.974C99.2273 175.974 100.073 176.184 100.829 176.604C101.585 177.012 102.179 177.6 102.611 178.368C103.055 179.136 103.277 180.03 103.277 181.05C103.277 182.07 103.049 182.97 102.593 183.75C102.149 184.518 101.543 185.112 100.775 185.532C100.007 185.952 99.1553 186.162 98.2193 186.162ZM98.2193 184.722C98.8073 184.722 99.3593 184.584 99.8753 184.308C100.391 184.032 100.805 183.618 101.117 183.066C101.441 182.514 101.603 181.842 101.603 181.05C101.603 180.258 101.447 179.586 101.135 179.034C100.823 178.482 100.415 178.074 99.9113 177.81C99.4073 177.534 98.8613 177.396 98.2733 177.396C97.6733 177.396 97.1213 177.534 96.6173 177.81C96.1253 178.074 95.7293 178.482 95.4293 179.034C95.1293 179.586 94.9793 180.258 94.9793 181.05C94.9793 181.854 95.1233 182.532 95.4113 183.084C95.7113 183.636 96.1073 184.05 96.5993 184.326C97.0913 184.59 97.6313 184.722 98.2193 184.722ZM107.069 172.68V186H105.431V172.68H107.069ZM110.707 174.534C110.395 174.534 110.131 174.426 109.915 174.21C109.699 173.994 109.591 173.73 109.591 173.418C109.591 173.106 109.699 172.842 109.915 172.626C110.131 172.41 110.395 172.302 110.707 172.302C111.007 172.302 111.259 172.41 111.463 172.626C111.679 172.842 111.787 173.106 111.787 173.418C111.787 173.73 111.679 173.994 111.463 174.21C111.259 174.426 111.007 174.534 110.707 174.534ZM111.499 176.136V186H109.861V176.136H111.499ZM119.096 175.956C120.296 175.956 121.268 176.322 122.012 177.054C122.756 177.774 123.128 178.818 123.128 180.186V186H121.508V180.42C121.508 179.436 121.262 178.686 120.77 178.17C120.278 177.642 119.606 177.378 118.754 177.378C117.89 177.378 117.2 177.648 116.684 178.188C116.18 178.728 115.928 179.514 115.928 180.546V186H114.29V176.136H115.928V177.54C116.252 177.036 116.69 176.646 117.242 176.37C117.806 176.094 118.424 175.956 119.096 175.956ZM129.872 175.974C130.724 175.974 131.468 176.16 132.104 176.532C132.752 176.904 133.232 177.372 133.544 177.936V176.136H135.2V186.216C135.2 187.116 135.008 187.914 134.624 188.61C134.24 189.318 133.688 189.87 132.968 190.266C132.26 190.662 131.432 190.86 130.484 190.86C129.188 190.86 128.108 190.554 127.244 189.942C126.38 189.33 125.87 188.496 125.714 187.44H127.334C127.514 188.04 127.886 188.52 128.45 188.88C129.014 189.252 129.692 189.438 130.484 189.438C131.384 189.438 132.116 189.156 132.68 188.592C133.256 188.028 133.544 187.236 133.544 186.216V184.146C133.22 184.722 132.74 185.202 132.104 185.586C131.468 185.97 130.724 186.162 129.872 186.162C128.996 186.162 128.198 185.946 127.478 185.514C126.77 185.082 126.212 184.476 125.804 183.696C125.396 182.916 125.192 182.028 125.192 181.032C125.192 180.024 125.396 179.142 125.804 178.386C126.212 177.618 126.77 177.024 127.478 176.604C128.198 176.184 128.996 175.974 129.872 175.974ZM133.544 181.05C133.544 180.306 133.394 179.658 133.094 179.106C132.794 178.554 132.386 178.134 131.87 177.846C131.366 177.546 130.808 177.396 130.196 177.396C129.584 177.396 129.026 177.54 128.522 177.828C128.018 178.116 127.616 178.536 127.316 179.088C127.016 179.64 126.866 180.288 126.866 181.032C126.866 181.788 127.016 182.448 127.316 183.012C127.616 183.564 128.018 183.99 128.522 184.29C129.026 184.578 129.584 184.722 130.196 184.722C130.808 184.722 131.366 184.578 131.87 184.29C132.386 183.99 132.794 183.564 133.094 183.012C133.394 182.448 133.544 181.794 133.544 181.05ZM146.259 186.162C145.503 186.162 144.825 186.036 144.225 185.784C143.625 185.52 143.151 185.16 142.803 184.704C142.455 184.236 142.263 183.702 142.227 183.102H143.919C143.967 183.594 144.195 183.996 144.603 184.308C145.023 184.62 145.569 184.776 146.241 184.776C146.865 184.776 147.357 184.638 147.717 184.362C148.077 184.086 148.257 183.738 148.257 183.318C148.257 182.886 148.065 182.568 147.681 182.364C147.297 182.148 146.703 181.938 145.899 181.734C145.167 181.542 144.567 181.35 144.099 181.158C143.643 180.954 143.247 180.66 142.911 180.276C142.587 179.88 142.425 179.364 142.425 178.728C142.425 178.224 142.575 177.762 142.875 177.342C143.175 176.922 143.601 176.592 144.153 176.352C144.705 176.1 145.335 175.974 146.043 175.974C147.135 175.974 148.017 176.25 148.689 176.802C149.361 177.354 149.721 178.11 149.769 179.07H148.131C148.095 178.554 147.885 178.14 147.501 177.828C147.129 177.516 146.625 177.36 145.989 177.36C145.401 177.36 144.933 177.486 144.585 177.738C144.237 177.99 144.063 178.32 144.063 178.728C144.063 179.052 144.165 179.322 144.369 179.538C144.585 179.742 144.849 179.91 145.161 180.042C145.485 180.162 145.929 180.3 146.493 180.456C147.201 180.648 147.777 180.84 148.221 181.032C148.665 181.212 149.043 181.488 149.355 181.86C149.679 182.232 149.847 182.718 149.859 183.318C149.859 183.858 149.709 184.344 149.409 184.776C149.109 185.208 148.683 185.55 148.131 185.802C147.591 186.042 146.967 186.162 146.259 186.162ZM160.667 176.136L154.727 190.644H153.035L154.979 185.892L151.001 176.136H152.819L155.915 184.128L158.975 176.136H160.667ZM165.806 186.162C165.05 186.162 164.372 186.036 163.772 185.784C163.172 185.52 162.698 185.16 162.35 184.704C162.002 184.236 161.81 183.702 161.774 183.102H163.466C163.514 183.594 163.742 183.996 164.15 184.308C164.57 184.62 165.116 184.776 165.788 184.776C166.412 184.776 166.904 184.638 167.264 184.362C167.624 184.086 167.804 183.738 167.804 183.318C167.804 182.886 167.612 182.568 167.228 182.364C166.844 182.148 166.25 181.938 165.446 181.734C164.714 181.542 164.114 181.35 163.646 181.158C163.19 180.954 162.794 180.66 162.458 180.276C162.134 179.88 161.972 179.364 161.972 178.728C161.972 178.224 162.122 177.762 162.422 177.342C162.722 176.922 163.148 176.592 163.7 176.352C164.252 176.1 164.882 175.974 165.59 175.974C166.682 175.974 167.564 176.25 168.236 176.802C168.908 177.354 169.268 178.11 169.316 179.07H167.678C167.642 178.554 167.432 178.14 167.048 177.828C166.676 177.516 166.172 177.36 165.536 177.36C164.948 177.36 164.48 177.486 164.132 177.738C163.784 177.99 163.61 178.32 163.61 178.728C163.61 179.052 163.712 179.322 163.916 179.538C164.132 179.742 164.396 179.91 164.708 180.042C165.032 180.162 165.476 180.3 166.04 180.456C166.748 180.648 167.324 180.84 167.768 181.032C168.212 181.212 168.59 181.488 168.902 181.86C169.226 182.232 169.394 182.718 169.406 183.318C169.406 183.858 169.256 184.344 168.956 184.776C168.656 185.208 168.23 185.55 167.678 185.802C167.138 186.042 166.514 186.162 165.806 186.162ZM173.716 177.486V183.3C173.716 183.78 173.818 184.122 174.022 184.326C174.226 184.518 174.58 184.614 175.084 184.614H176.29V186H174.814C173.902 186 173.218 185.79 172.762 185.37C172.306 184.95 172.078 184.26 172.078 183.3V177.486H170.8V176.136H172.078V173.652H173.716V176.136H176.29V177.486H173.716ZM187.275 180.69C187.275 181.002 187.257 181.332 187.221 181.68H179.337C179.397 182.652 179.727 183.414 180.327 183.966C180.939 184.506 181.677 184.776 182.541 184.776C183.249 184.776 183.837 184.614 184.305 184.29C184.785 183.954 185.121 183.51 185.313 182.958H187.077C186.813 183.906 186.285 184.68 185.493 185.28C184.701 185.868 183.717 186.162 182.541 186.162C181.605 186.162 180.765 185.952 180.021 185.532C179.289 185.112 178.713 184.518 178.293 183.75C177.873 182.97 177.663 182.07 177.663 181.05C177.663 180.03 177.867 179.136 178.275 178.368C178.683 177.6 179.253 177.012 179.985 176.604C180.729 176.184 181.581 175.974 182.541 175.974C183.477 175.974 184.305 176.178 185.025 176.586C185.745 176.994 186.297 177.558 186.681 178.278C187.077 178.986 187.275 179.79 187.275 180.69ZM185.583 180.348C185.583 179.724 185.445 179.19 185.169 178.746C184.893 178.29 184.515 177.948 184.035 177.72C183.567 177.48 183.045 177.36 182.469 177.36C181.641 177.36 180.933 177.624 180.345 178.152C179.769 178.68 179.439 179.412 179.355 180.348H185.583ZM201.299 175.956C202.067 175.956 202.751 176.118 203.351 176.442C203.951 176.754 204.425 177.228 204.773 177.864C205.121 178.5 205.295 179.274 205.295 180.186V186H203.675V180.42C203.675 179.436 203.429 178.686 202.937 178.17C202.457 177.642 201.803 177.378 200.975 177.378C200.123 177.378 199.445 177.654 198.941 178.206C198.437 178.746 198.185 179.532 198.185 180.564V186H196.565V180.42C196.565 179.436 196.319 178.686 195.827 178.17C195.347 177.642 194.693 177.378 193.865 177.378C193.013 177.378 192.335 177.654 191.831 178.206C191.327 178.746 191.075 179.532 191.075 180.564V186H189.437V176.136H191.075V177.558C191.399 177.042 191.831 176.646 192.371 176.37C192.923 176.094 193.529 175.956 194.189 175.956C195.017 175.956 195.749 176.142 196.385 176.514C197.021 176.886 197.495 177.432 197.807 178.152C198.083 177.456 198.539 176.916 199.175 176.532C199.811 176.148 200.519 175.956 201.299 175.956ZM221.529 176.136V186H219.891V184.542C219.579 185.046 219.141 185.442 218.577 185.73C218.025 186.006 217.413 186.144 216.741 186.144C215.973 186.144 215.283 185.988 214.671 185.676C214.059 185.352 213.573 184.872 213.213 184.236C212.865 183.6 212.691 182.826 212.691 181.914V176.136H214.311V181.698C214.311 182.67 214.557 183.42 215.049 183.948C215.541 184.464 216.213 184.722 217.065 184.722C217.941 184.722 218.631 184.452 219.135 183.912C219.639 183.372 219.891 182.586 219.891 181.554V176.136H221.529ZM229.1 175.956C230.3 175.956 231.272 176.322 232.016 177.054C232.76 177.774 233.132 178.818 233.132 180.186V186H231.512V180.42C231.512 179.436 231.266 178.686 230.774 178.17C230.282 177.642 229.61 177.378 228.758 177.378C227.894 177.378 227.204 177.648 226.688 178.188C226.184 178.728 225.932 179.514 225.932 180.546V186H224.294V176.136H225.932V177.54C226.256 177.036 226.694 176.646 227.246 176.37C227.81 176.094 228.428 175.956 229.1 175.956ZM237.806 177.486V183.3C237.806 183.78 237.908 184.122 238.112 184.326C238.316 184.518 238.67 184.614 239.174 184.614H240.38V186H238.904C237.992 186 237.308 185.79 236.852 185.37C236.396 184.95 236.168 184.26 236.168 183.3V177.486H234.89V176.136H236.168V173.652H237.806V176.136H240.38V177.486H237.806ZM251.113 176.136V186H249.475V184.542C249.163 185.046 248.725 185.442 248.161 185.73C247.609 186.006 246.997 186.144 246.325 186.144C245.557 186.144 244.867 185.988 244.255 185.676C243.643 185.352 243.157 184.872 242.797 184.236C242.449 183.6 242.275 182.826 242.275 181.914V176.136H243.895V181.698C243.895 182.67 244.141 183.42 244.633 183.948C245.125 184.464 245.797 184.722 246.649 184.722C247.525 184.722 248.215 184.452 248.719 183.912C249.223 183.372 249.475 182.586 249.475 181.554V176.136H251.113ZM259.386 186L255.516 181.644V186H253.878V172.68H255.516V180.51L259.314 176.136H261.6L256.956 181.05L261.618 186H259.386ZM279.803 175.956C280.571 175.956 281.255 176.118 281.855 176.442C282.455 176.754 282.929 177.228 283.277 177.864C283.625 178.5 283.799 179.274 283.799 180.186V186H282.179V180.42C282.179 179.436 281.933 178.686 281.441 178.17C280.961 177.642 280.307 177.378 279.479 177.378C278.627 177.378 277.949 177.654 277.445 178.206C276.941 178.746 276.689 179.532 276.689 180.564V186H275.069V180.42C275.069 179.436 274.823 178.686 274.331 178.17C273.851 177.642 273.197 177.378 272.369 177.378C271.517 177.378 270.839 177.654 270.335 178.206C269.831 178.746 269.579 179.532 269.579 180.564V186H267.941V176.136H269.579V177.558C269.903 177.042 270.335 176.646 270.875 176.37C271.427 176.094 272.033 175.956 272.693 175.956C273.521 175.956 274.253 176.142 274.889 176.514C275.525 176.886 275.999 177.432 276.311 178.152C276.587 177.456 277.043 176.916 277.679 176.532C278.315 176.148 279.023 175.956 279.803 175.956ZM287.332 174.534C287.02 174.534 286.756 174.426 286.54 174.21C286.324 173.994 286.216 173.73 286.216 173.418C286.216 173.106 286.324 172.842 286.54 172.626C286.756 172.41 287.02 172.302 287.332 172.302C287.632 172.302 287.884 172.41 288.088 172.626C288.304 172.842 288.412 173.106 288.412 173.418C288.412 173.73 288.304 173.994 288.088 174.21C287.884 174.426 287.632 174.534 287.332 174.534ZM288.124 176.136V186H286.486V176.136H288.124ZM295.721 175.956C296.921 175.956 297.893 176.322 298.637 177.054C299.381 177.774 299.753 178.818 299.753 180.186V186H298.133V180.42C298.133 179.436 297.887 178.686 297.395 178.17C296.903 177.642 296.231 177.378 295.379 177.378C294.515 177.378 293.825 177.648 293.309 178.188C292.805 178.728 292.553 179.514 292.553 180.546V186H290.915V176.136H292.553V177.54C292.877 177.036 293.315 176.646 293.867 176.37C294.431 176.094 295.049 175.956 295.721 175.956ZM311.177 176.136V186H309.539V184.542C309.227 185.046 308.789 185.442 308.225 185.73C307.673 186.006 307.061 186.144 306.389 186.144C305.621 186.144 304.931 185.988 304.319 185.676C303.707 185.352 303.221 184.872 302.861 184.236C302.513 183.6 302.339 182.826 302.339 181.914V176.136H303.959V181.698C303.959 182.67 304.205 183.42 304.697 183.948C305.189 184.464 305.861 184.722 306.713 184.722C307.589 184.722 308.279 184.452 308.783 183.912C309.287 183.372 309.539 182.586 309.539 181.554V176.136H311.177ZM325.805 175.956C326.573 175.956 327.257 176.118 327.857 176.442C328.457 176.754 328.931 177.228 329.279 177.864C329.627 178.5 329.801 179.274 329.801 180.186V186H328.181V180.42C328.181 179.436 327.935 178.686 327.443 178.17C326.963 177.642 326.309 177.378 325.481 177.378C324.629 177.378 323.951 177.654 323.447 178.206C322.943 178.746 322.691 179.532 322.691 180.564V186H321.071V180.42C321.071 179.436 320.825 178.686 320.333 178.17C319.853 177.642 319.199 177.378 318.371 177.378C317.519 177.378 316.841 177.654 316.337 178.206C315.833 178.746 315.581 179.532 315.581 180.564V186H313.943V176.136H315.581V177.558C315.905 177.042 316.337 176.646 316.877 176.37C317.429 176.094 318.035 175.956 318.695 175.956C319.523 175.956 320.255 176.142 320.891 176.514C321.527 176.886 322.001 177.432 322.313 178.152C322.589 177.456 323.045 176.916 323.681 176.532C324.317 176.148 325.025 175.956 325.805 175.956ZM331.876 181.032C331.876 180.024 332.08 179.142 332.488 178.386C332.896 177.618 333.454 177.024 334.162 176.604C334.882 176.184 335.68 175.974 336.556 175.974C337.42 175.974 338.17 176.16 338.806 176.532C339.442 176.904 339.916 177.372 340.228 177.936V176.136H341.884V186H340.228V184.164C339.904 184.74 339.418 185.22 338.77 185.604C338.134 185.976 337.39 186.162 336.538 186.162C335.662 186.162 334.87 185.946 334.162 185.514C333.454 185.082 332.896 184.476 332.488 183.696C332.08 182.916 331.876 182.028 331.876 181.032ZM340.228 181.05C340.228 180.306 340.078 179.658 339.778 179.106C339.478 178.554 339.07 178.134 338.554 177.846C338.05 177.546 337.492 177.396 336.88 177.396C336.268 177.396 335.71 177.54 335.206 177.828C334.702 178.116 334.3 178.536 334 179.088C333.7 179.64 333.55 180.288 333.55 181.032C333.55 181.788 333.7 182.448 334 183.012C334.3 183.564 334.702 183.99 335.206 184.29C335.71 184.578 336.268 184.722 336.88 184.722C337.492 184.722 338.05 184.578 338.554 184.29C339.07 183.99 339.478 183.564 339.778 183.012C340.078 182.448 340.228 181.794 340.228 181.05ZM349.458 175.956C350.658 175.956 351.63 176.322 352.374 177.054C353.118 177.774 353.49 178.818 353.49 180.186V186H351.87V180.42C351.87 179.436 351.624 178.686 351.132 178.17C350.64 177.642 349.968 177.378 349.116 177.378C348.252 177.378 347.562 177.648 347.046 178.188C346.542 178.728 346.29 179.514 346.29 180.546V186H344.652V176.136H346.29V177.54C346.614 177.036 347.052 176.646 347.604 176.37C348.168 176.094 348.786 175.956 349.458 175.956ZM366.472 186L362.602 181.644V186H360.964V172.68H362.602V180.51L366.4 176.136H368.686L364.042 181.05L368.704 186H366.472ZM374.53 186.162C373.606 186.162 372.766 185.952 372.01 185.532C371.266 185.112 370.678 184.518 370.246 183.75C369.826 182.97 369.616 182.07 369.616 181.05C369.616 180.042 369.832 179.154 370.264 178.386C370.708 177.606 371.308 177.012 372.064 176.604C372.82 176.184 373.666 175.974 374.602 175.974C375.538 175.974 376.384 176.184 377.14 176.604C377.896 177.012 378.49 177.6 378.922 178.368C379.366 179.136 379.588 180.03 379.588 181.05C379.588 182.07 379.36 182.97 378.904 183.75C378.46 184.518 377.854 185.112 377.086 185.532C376.318 185.952 375.466 186.162 374.53 186.162ZM374.53 184.722C375.118 184.722 375.67 184.584 376.186 184.308C376.702 184.032 377.116 183.618 377.428 183.066C377.752 182.514 377.914 181.842 377.914 181.05C377.914 180.258 377.758 179.586 377.446 179.034C377.134 178.482 376.726 178.074 376.222 177.81C375.718 177.534 375.172 177.396 374.584 177.396C373.984 177.396 373.432 177.534 372.928 177.81C372.436 178.074 372.04 178.482 371.74 179.034C371.44 179.586 371.29 180.258 371.29 181.05C371.29 181.854 371.434 182.532 371.722 183.084C372.022 183.636 372.418 184.05 372.91 184.326C373.402 184.59 373.942 184.722 374.53 184.722ZM383.379 177.954C383.703 177.39 384.183 176.922 384.819 176.55C385.467 176.166 386.217 175.974 387.069 175.974C387.945 175.974 388.737 176.184 389.445 176.604C390.165 177.024 390.729 177.618 391.137 178.386C391.545 179.142 391.749 180.024 391.749 181.032C391.749 182.028 391.545 182.916 391.137 183.696C390.729 184.476 390.165 185.082 389.445 185.514C388.737 185.946 387.945 186.162 387.069 186.162C386.229 186.162 385.485 185.976 384.837 185.604C384.201 185.22 383.715 184.746 383.379 184.182V190.68H381.741V176.136H383.379V177.954ZM390.075 181.032C390.075 180.288 389.925 179.64 389.625 179.088C389.325 178.536 388.917 178.116 388.401 177.828C387.897 177.54 387.339 177.396 386.727 177.396C386.127 177.396 385.569 177.546 385.053 177.846C384.549 178.134 384.141 178.56 383.829 179.124C383.529 179.676 383.379 180.318 383.379 181.05C383.379 181.794 383.529 182.448 383.829 183.012C384.141 183.564 384.549 183.99 385.053 184.29C385.569 184.578 386.127 184.722 386.727 184.722C387.339 184.722 387.897 184.578 388.401 184.29C388.917 183.99 389.325 183.564 389.625 183.012C389.925 182.448 390.075 181.788 390.075 181.032ZM394.752 174.534C394.44 174.534 394.176 174.426 393.96 174.21C393.744 173.994 393.636 173.73 393.636 173.418C393.636 173.106 393.744 172.842 393.96 172.626C394.176 172.41 394.44 172.302 394.752 172.302C395.052 172.302 395.304 172.41 395.508 172.626C395.724 172.842 395.832 173.106 395.832 173.418C395.832 173.73 395.724 173.994 395.508 174.21C395.304 174.426 395.052 174.534 394.752 174.534ZM395.544 176.136V186H393.906V176.136H395.544Z" fill="white"/>
<path d="M13.481 217.202C12.869 217.202 12.347 216.992 11.915 216.572C11.495 216.14 11.285 215.618 11.285 215.006C11.285 214.382 11.495 213.86 11.915 213.44C12.347 213.008 12.869 212.792 13.481 212.792C14.105 212.792 14.633 213.008 15.065 213.44C15.497 213.86 15.713 214.382 15.713 215.006C15.713 215.618 15.497 216.14 15.065 216.572C14.633 216.992 14.105 217.202 13.481 217.202ZM35.19 221L30.024 215.276V221H28.386V208.454H30.024V214.268L35.208 208.454H37.278L31.59 214.736L37.332 221H35.19ZM38.5494 216.032C38.5494 215.024 38.7534 214.142 39.1614 213.386C39.5694 212.618 40.1274 212.024 40.8354 211.604C41.5554 211.184 42.3534 210.974 43.2294 210.974C44.0934 210.974 44.8434 211.16 45.4794 211.532C46.1154 211.904 46.5894 212.372 46.9014 212.936V211.136H48.5574V221H46.9014V219.164C46.5774 219.74 46.0914 220.22 45.4434 220.604C44.8074 220.976 44.0634 221.162 43.2114 221.162C42.3354 221.162 41.5434 220.946 40.8354 220.514C40.1274 220.082 39.5694 219.476 39.1614 218.696C38.7534 217.916 38.5494 217.028 38.5494 216.032ZM46.9014 216.05C46.9014 215.306 46.7514 214.658 46.4514 214.106C46.1514 213.554 45.7434 213.134 45.2274 212.846C44.7234 212.546 44.1654 212.396 43.5534 212.396C42.9414 212.396 42.3834 212.54 41.8794 212.828C41.3754 213.116 40.9734 213.536 40.6734 214.088C40.3734 214.64 40.2234 215.288 40.2234 216.032C40.2234 216.788 40.3734 217.448 40.6734 218.012C40.9734 218.564 41.3754 218.99 41.8794 219.29C42.3834 219.578 42.9414 219.722 43.5534 219.722C44.1654 219.722 44.7234 219.578 45.2274 219.29C45.7434 218.99 46.1514 218.564 46.4514 218.012C46.7514 217.448 46.9014 216.794 46.9014 216.05ZM52.9635 212.954C53.2875 212.39 53.7675 211.922 54.4035 211.55C55.0515 211.166 55.8015 210.974 56.6535 210.974C57.5295 210.974 58.3215 211.184 59.0295 211.604C59.7495 212.024 60.3135 212.618 60.7215 213.386C61.1295 214.142 61.3335 215.024 61.3335 216.032C61.3335 217.028 61.1295 217.916 60.7215 218.696C60.3135 219.476 59.7495 220.082 59.0295 220.514C58.3215 220.946 57.5295 221.162 56.6535 221.162C55.8135 221.162 55.0695 220.976 54.4215 220.604C53.7855 220.22 53.2995 219.746 52.9635 219.182V225.68H51.3255V211.136H52.9635V212.954ZM59.6595 216.032C59.6595 215.288 59.5095 214.64 59.2095 214.088C58.9095 213.536 58.5015 213.116 57.9855 212.828C57.4815 212.54 56.9235 212.396 56.3115 212.396C55.7115 212.396 55.1535 212.546 54.6375 212.846C54.1335 213.134 53.7255 213.56 53.4135 214.124C53.1135 214.676 52.9635 215.318 52.9635 216.05C52.9635 216.794 53.1135 217.448 53.4135 218.012C53.7255 218.564 54.1335 218.99 54.6375 219.29C55.1535 219.578 55.7115 219.722 56.3115 219.722C56.9235 219.722 57.4815 219.578 57.9855 219.29C58.5015 218.99 58.9095 218.564 59.2095 218.012C59.5095 217.448 59.6595 216.788 59.6595 216.032ZM62.8775 216.032C62.8775 215.024 63.0815 214.142 63.4895 213.386C63.8975 212.618 64.4555 212.024 65.1635 211.604C65.8835 211.184 66.6815 210.974 67.5575 210.974C68.4215 210.974 69.1715 211.16 69.8075 211.532C70.4435 211.904 70.9175 212.372 71.2295 212.936V211.136H72.8855V221H71.2295V219.164C70.9055 219.74 70.4195 220.22 69.7715 220.604C69.1355 220.976 68.3915 221.162 67.5395 221.162C66.6635 221.162 65.8715 220.946 65.1635 220.514C64.4555 220.082 63.8975 219.476 63.4895 218.696C63.0815 217.916 62.8775 217.028 62.8775 216.032ZM71.2295 216.05C71.2295 215.306 71.0795 214.658 70.7795 214.106C70.4795 213.554 70.0715 213.134 69.5555 212.846C69.0515 212.546 68.4935 212.396 67.8815 212.396C67.2695 212.396 66.7115 212.54 66.2075 212.828C65.7035 213.116 65.3015 213.536 65.0015 214.088C64.7015 214.64 64.5515 215.288 64.5515 216.032C64.5515 216.788 64.7015 217.448 65.0015 218.012C65.3015 218.564 65.7035 218.99 66.2075 219.29C66.7115 219.578 67.2695 219.722 67.8815 219.722C68.4935 219.722 69.0515 219.578 69.5555 219.29C70.0715 218.99 70.4795 218.564 70.7795 218.012C71.0795 217.448 71.2295 216.794 71.2295 216.05ZM79.1456 221.162C78.3896 221.162 77.7116 221.036 77.1116 220.784C76.5116 220.52 76.0376 220.16 75.6896 219.704C75.3416 219.236 75.1496 218.702 75.1136 218.102H76.8056C76.8536 218.594 77.0816 218.996 77.4896 219.308C77.9096 219.62 78.4556 219.776 79.1276 219.776C79.7516 219.776 80.2436 219.638 80.6036 219.362C80.9636 219.086 81.1436 218.738 81.1436 218.318C81.1436 217.886 80.9516 217.568 80.5676 217.364C80.1836 217.148 79.5896 216.938 78.7856 216.734C78.0536 216.542 77.4536 216.35 76.9856 216.158C76.5296 215.954 76.1336 215.66 75.7976 215.276C75.4736 214.88 75.3116 214.364 75.3116 213.728C75.3116 213.224 75.4616 212.762 75.7616 212.342C76.0616 211.922 76.4876 211.592 77.0396 211.352C77.5916 211.1 78.2216 210.974 78.9296 210.974C80.0216 210.974 80.9036 211.25 81.5756 211.802C82.2476 212.354 82.6076 213.11 82.6556 214.07H81.0176C80.9816 213.554 80.7716 213.14 80.3876 212.828C80.0156 212.516 79.5116 212.36 78.8756 212.36C78.2876 212.36 77.8196 212.486 77.4716 212.738C77.1236 212.99 76.9496 213.32 76.9496 213.728C76.9496 214.052 77.0516 214.322 77.2556 214.538C77.4716 214.742 77.7356 214.91 78.0476 215.042C78.3716 215.162 78.8156 215.3 79.3796 215.456C80.0876 215.648 80.6636 215.84 81.1076 216.032C81.5516 216.212 81.9296 216.488 82.2416 216.86C82.5656 217.232 82.7336 217.718 82.7456 218.318C82.7456 218.858 82.5956 219.344 82.2956 219.776C81.9956 220.208 81.5696 220.55 81.0176 220.802C80.4776 221.042 79.8536 221.162 79.1456 221.162ZM85.9039 209.534C85.5919 209.534 85.3279 209.426 85.1119 209.21C84.8959 208.994 84.7879 208.73 84.7879 208.418C84.7879 208.106 84.8959 207.842 85.1119 207.626C85.3279 207.41 85.5919 207.302 85.9039 207.302C86.2039 207.302 86.4559 207.41 86.6599 207.626C86.8759 207.842 86.9839 208.106 86.9839 208.418C86.9839 208.73 86.8759 208.994 86.6599 209.21C86.4559 209.426 86.2039 209.534 85.9039 209.534ZM86.6959 211.136V221H85.0579V211.136H86.6959ZM91.4856 212.486V218.3C91.4856 218.78 91.5876 219.122 91.7916 219.326C91.9956 219.518 92.3496 219.614 92.8536 219.614H94.0596V221H92.5836C91.6716 221 90.9876 220.79 90.5316 220.37C90.0756 219.95 89.8476 219.26 89.8476 218.3V212.486H88.5696V211.136H89.8476V208.652H91.4856V211.136H94.0596V212.486H91.4856ZM95.4322 216.032C95.4322 215.024 95.6362 214.142 96.0442 213.386C96.4522 212.618 97.0102 212.024 97.7182 211.604C98.4382 211.184 99.2362 210.974 100.112 210.974C100.976 210.974 101.726 211.16 102.362 211.532C102.998 211.904 103.472 212.372 103.784 212.936V211.136H105.44V221H103.784V219.164C103.46 219.74 102.974 220.22 102.326 220.604C101.69 220.976 100.946 221.162 100.094 221.162C99.2182 221.162 98.4262 220.946 97.7182 220.514C97.0102 220.082 96.4522 219.476 96.0442 218.696C95.6362 217.916 95.4322 217.028 95.4322 216.032ZM103.784 216.05C103.784 215.306 103.634 214.658 103.334 214.106C103.034 213.554 102.626 213.134 102.11 212.846C101.606 212.546 101.048 212.396 100.436 212.396C99.8242 212.396 99.2662 212.54 98.7622 212.828C98.2582 213.116 97.8562 213.536 97.5562 214.088C97.2562 214.64 97.1062 215.288 97.1062 216.032C97.1062 216.788 97.2562 217.448 97.5562 218.012C97.8562 218.564 98.2582 218.99 98.7622 219.29C99.2662 219.578 99.8242 219.722 100.436 219.722C101.048 219.722 101.606 219.578 102.11 219.29C102.626 218.99 103.034 218.564 103.334 218.012C103.634 217.448 103.784 216.794 103.784 216.05ZM111.7 221.162C110.944 221.162 110.266 221.036 109.666 220.784C109.066 220.52 108.592 220.16 108.244 219.704C107.896 219.236 107.704 218.702 107.668 218.102H109.36C109.408 218.594 109.636 218.996 110.044 219.308C110.464 219.62 111.01 219.776 111.682 219.776C112.306 219.776 112.798 219.638 113.158 219.362C113.518 219.086 113.698 218.738 113.698 218.318C113.698 217.886 113.506 217.568 113.122 217.364C112.738 217.148 112.144 216.938 111.34 216.734C110.608 216.542 110.008 216.35 109.54 216.158C109.084 215.954 108.688 215.66 108.352 215.276C108.028 214.88 107.866 214.364 107.866 213.728C107.866 213.224 108.016 212.762 108.316 212.342C108.616 211.922 109.042 211.592 109.594 211.352C110.146 211.1 110.776 210.974 111.484 210.974C112.576 210.974 113.458 211.25 114.13 211.802C114.802 212.354 115.162 213.11 115.21 214.07H113.572C113.536 213.554 113.326 213.14 112.942 212.828C112.57 212.516 112.066 212.36 111.43 212.36C110.842 212.36 110.374 212.486 110.026 212.738C109.678 212.99 109.504 213.32 109.504 213.728C109.504 214.052 109.606 214.322 109.81 214.538C110.026 214.742 110.29 214.91 110.602 215.042C110.926 215.162 111.37 215.3 111.934 215.456C112.642 215.648 113.218 215.84 113.662 216.032C114.106 216.212 114.484 216.488 114.796 216.86C115.12 217.232 115.288 217.718 115.3 218.318C115.3 218.858 115.15 219.344 114.85 219.776C114.55 220.208 114.124 220.55 113.572 220.802C113.032 221.042 112.408 221.162 111.7 221.162ZM125.903 221.162C125.147 221.162 124.469 221.036 123.869 220.784C123.269 220.52 122.795 220.16 122.447 219.704C122.099 219.236 121.907 218.702 121.871 218.102H123.563C123.611 218.594 123.839 218.996 124.247 219.308C124.667 219.62 125.213 219.776 125.885 219.776C126.509 219.776 127.001 219.638 127.361 219.362C127.721 219.086 127.901 218.738 127.901 218.318C127.901 217.886 127.709 217.568 127.325 217.364C126.941 217.148 126.347 216.938 125.543 216.734C124.811 216.542 124.211 216.35 123.743 216.158C123.287 215.954 122.891 215.66 122.555 215.276C122.231 214.88 122.069 214.364 122.069 213.728C122.069 213.224 122.219 212.762 122.519 212.342C122.819 211.922 123.245 211.592 123.797 211.352C124.349 211.1 124.979 210.974 125.687 210.974C126.779 210.974 127.661 211.25 128.333 211.802C129.005 212.354 129.365 213.11 129.413 214.07H127.775C127.739 213.554 127.529 213.14 127.145 212.828C126.773 212.516 126.269 212.36 125.633 212.36C125.045 212.36 124.577 212.486 124.229 212.738C123.881 212.99 123.707 213.32 123.707 213.728C123.707 214.052 123.809 214.322 124.013 214.538C124.229 214.742 124.493 214.91 124.805 215.042C125.129 215.162 125.573 215.3 126.137 215.456C126.845 215.648 127.421 215.84 127.865 216.032C128.309 216.212 128.687 216.488 128.999 216.86C129.323 217.232 129.491 217.718 129.503 218.318C129.503 218.858 129.353 219.344 129.053 219.776C128.753 220.208 128.327 220.55 127.775 220.802C127.235 221.042 126.611 221.162 125.903 221.162ZM133.454 207.68V221H131.816V207.68H133.454ZM140.547 221.162C139.623 221.162 138.783 220.952 138.027 220.532C137.283 220.112 136.695 219.518 136.263 218.75C135.843 217.97 135.633 217.07 135.633 216.05C135.633 215.042 135.849 214.154 136.281 213.386C136.725 212.606 137.325 212.012 138.081 211.604C138.837 211.184 139.683 210.974 140.619 210.974C141.555 210.974 142.401 211.184 143.157 211.604C143.913 212.012 144.507 212.6 144.939 213.368C145.383 214.136 145.605 215.03 145.605 216.05C145.605 217.07 145.377 217.97 144.921 218.75C144.477 219.518 143.871 220.112 143.103 220.532C142.335 220.952 141.483 221.162 140.547 221.162ZM140.547 219.722C141.135 219.722 141.687 219.584 142.203 219.308C142.719 219.032 143.133 218.618 143.445 218.066C143.769 217.514 143.931 216.842 143.931 216.05C143.931 215.258 143.775 214.586 143.463 214.034C143.151 213.482 142.743 213.074 142.239 212.81C141.735 212.534 141.189 212.396 140.601 212.396C140.001 212.396 139.449 212.534 138.945 212.81C138.453 213.074 138.057 213.482 137.757 214.034C137.457 214.586 137.307 215.258 137.307 216.05C137.307 216.854 137.451 217.532 137.739 218.084C138.039 218.636 138.435 219.05 138.927 219.326C139.419 219.59 139.959 219.722 140.547 219.722ZM149.757 212.486V218.3C149.757 218.78 149.859 219.122 150.063 219.326C150.267 219.518 150.621 219.614 151.125 219.614H152.331V221H150.855C149.943 221 149.259 220.79 148.803 220.37C148.347 219.95 148.119 219.26 148.119 218.3V212.486H146.841V211.136H148.119V208.652H149.757V211.136H152.331V212.486H149.757ZM160.753 212.954C161.077 212.39 161.557 211.922 162.193 211.55C162.841 211.166 163.591 210.974 164.443 210.974C165.319 210.974 166.111 211.184 166.819 211.604C167.539 212.024 168.103 212.618 168.511 213.386C168.919 214.142 169.123 215.024 169.123 216.032C169.123 217.028 168.919 217.916 168.511 218.696C168.103 219.476 167.539 220.082 166.819 220.514C166.111 220.946 165.319 221.162 164.443 221.162C163.603 221.162 162.859 220.976 162.211 220.604C161.575 220.22 161.089 219.746 160.753 219.182V225.68H159.115V211.136H160.753V212.954ZM167.449 216.032C167.449 215.288 167.299 214.64 166.999 214.088C166.699 213.536 166.291 213.116 165.775 212.828C165.271 212.54 164.713 212.396 164.101 212.396C163.501 212.396 162.943 212.546 162.427 212.846C161.923 213.134 161.515 213.56 161.203 214.124C160.903 214.676 160.753 215.318 160.753 216.05C160.753 216.794 160.903 217.448 161.203 218.012C161.515 218.564 161.923 218.99 162.427 219.29C162.943 219.578 163.501 219.722 164.101 219.722C164.713 219.722 165.271 219.578 165.775 219.29C166.291 218.99 166.699 218.564 166.999 218.012C167.299 217.448 167.449 216.788 167.449 216.032ZM172.917 212.738C173.205 212.174 173.613 211.736 174.141 211.424C174.681 211.112 175.335 210.956 176.103 210.956V212.648H175.671C173.835 212.648 172.917 213.644 172.917 215.636V221H171.279V211.136H172.917V212.738ZM182.295 221.162C181.371 221.162 180.531 220.952 179.775 220.532C179.031 220.112 178.443 219.518 178.011 218.75C177.591 217.97 177.381 217.07 177.381 216.05C177.381 215.042 177.597 214.154 178.029 213.386C178.473 212.606 179.073 212.012 179.829 211.604C180.585 211.184 181.431 210.974 182.367 210.974C183.303 210.974 184.149 211.184 184.905 211.604C185.661 212.012 186.255 212.6 186.687 213.368C187.131 214.136 187.353 215.03 187.353 216.05C187.353 217.07 187.125 217.97 186.669 218.75C186.225 219.518 185.619 220.112 184.851 220.532C184.083 220.952 183.231 221.162 182.295 221.162ZM182.295 219.722C182.883 219.722 183.435 219.584 183.951 219.308C184.467 219.032 184.881 218.618 185.193 218.066C185.517 217.514 185.679 216.842 185.679 216.05C185.679 215.258 185.523 214.586 185.211 214.034C184.899 213.482 184.491 213.074 183.987 212.81C183.483 212.534 182.937 212.396 182.349 212.396C181.749 212.396 181.197 212.534 180.693 212.81C180.201 213.074 179.805 213.482 179.505 214.034C179.205 214.586 179.055 215.258 179.055 216.05C179.055 216.854 179.199 217.532 179.487 218.084C179.787 218.636 180.183 219.05 180.675 219.326C181.167 219.59 181.707 219.722 182.295 219.722ZM188.895 216.032C188.895 215.024 189.099 214.142 189.507 213.386C189.915 212.618 190.473 212.024 191.181 211.604C191.901 211.184 192.705 210.974 193.593 210.974C194.361 210.974 195.075 211.154 195.735 211.514C196.395 211.862 196.899 212.324 197.247 212.9V207.68H198.903V221H197.247V219.146C196.923 219.734 196.443 220.22 195.807 220.604C195.171 220.976 194.427 221.162 193.575 221.162C192.699 221.162 191.901 220.946 191.181 220.514C190.473 220.082 189.915 219.476 189.507 218.696C189.099 217.916 188.895 217.028 188.895 216.032ZM197.247 216.05C197.247 215.306 197.097 214.658 196.797 214.106C196.497 213.554 196.089 213.134 195.573 212.846C195.069 212.546 194.511 212.396 193.899 212.396C193.287 212.396 192.729 212.54 192.225 212.828C191.721 213.116 191.319 213.536 191.019 214.088C190.719 214.64 190.569 215.288 190.569 216.032C190.569 216.788 190.719 217.448 191.019 218.012C191.319 218.564 191.721 218.99 192.225 219.29C192.729 219.578 193.287 219.722 193.899 219.722C194.511 219.722 195.069 219.578 195.573 219.29C196.089 218.99 196.497 218.564 196.797 218.012C197.097 217.448 197.247 216.794 197.247 216.05ZM210.419 211.136V221H208.781V219.542C208.469 220.046 208.031 220.442 207.467 220.73C206.915 221.006 206.303 221.144 205.631 221.144C204.863 221.144 204.173 220.988 203.561 220.676C202.949 220.352 202.463 219.872 202.103 219.236C201.755 218.6 201.581 217.826 201.581 216.914V211.136H203.201V216.698C203.201 217.67 203.447 218.42 203.939 218.948C204.431 219.464 205.103 219.722 205.955 219.722C206.831 219.722 207.521 219.452 208.025 218.912C208.529 218.372 208.781 217.586 208.781 216.554V211.136H210.419ZM218.693 221L214.823 216.644V221H213.185V207.68H214.823V215.51L218.621 211.136H220.907L216.263 216.05L220.925 221H218.693ZM232.143 210.956C232.887 210.956 233.559 211.118 234.159 211.442C234.759 211.754 235.227 212.228 235.563 212.864C235.911 213.5 236.085 214.274 236.085 215.186V221H234.465V215.42C234.465 214.436 234.219 213.686 233.727 213.17C233.235 212.642 232.563 212.378 231.711 212.378C230.847 212.378 230.157 212.648 229.641 213.188C229.137 213.728 228.885 214.514 228.885 215.546V221H227.247V207.68H228.885V212.54C229.209 212.036 229.653 211.646 230.217 211.37C230.793 211.094 231.435 210.956 232.143 210.956ZM239.607 209.534C239.295 209.534 239.031 209.426 238.815 209.21C238.599 208.994 238.491 208.73 238.491 208.418C238.491 208.106 238.599 207.842 238.815 207.626C239.031 207.41 239.295 207.302 239.607 207.302C239.907 207.302 240.159 207.41 240.363 207.626C240.579 207.842 240.687 208.106 240.687 208.418C240.687 208.73 240.579 208.994 240.363 209.21C240.159 209.426 239.907 209.534 239.607 209.534ZM240.399 211.136V221H238.761V211.136H240.399ZM247.997 210.956C249.197 210.956 250.169 211.322 250.913 212.054C251.657 212.774 252.029 213.818 252.029 215.186V221H250.409V215.42C250.409 214.436 250.163 213.686 249.671 213.17C249.179 212.642 248.507 212.378 247.655 212.378C246.791 212.378 246.101 212.648 245.585 213.188C245.081 213.728 244.829 214.514 244.829 215.546V221H243.191V211.136H244.829V212.54C245.153 212.036 245.591 211.646 246.143 211.37C246.707 211.094 247.325 210.956 247.997 210.956ZM258.772 210.974C259.624 210.974 260.368 211.16 261.004 211.532C261.652 211.904 262.132 212.372 262.444 212.936V211.136H264.1V221.216C264.1 222.116 263.908 222.914 263.524 223.61C263.14 224.318 262.588 224.87 261.868 225.266C261.16 225.662 260.332 225.86 259.384 225.86C258.088 225.86 257.008 225.554 256.144 224.942C255.28 224.33 254.77 223.496 254.614 222.44H256.234C256.414 223.04 256.786 223.52 257.35 223.88C257.914 224.252 258.592 224.438 259.384 224.438C260.284 224.438 261.016 224.156 261.58 223.592C262.156 223.028 262.444 222.236 262.444 221.216V219.146C262.12 219.722 261.64 220.202 261.004 220.586C260.368 220.97 259.624 221.162 258.772 221.162C257.896 221.162 257.098 220.946 256.378 220.514C255.67 220.082 255.112 219.476 254.704 218.696C254.296 217.916 254.092 217.028 254.092 216.032C254.092 215.024 254.296 214.142 254.704 213.386C255.112 212.618 255.67 212.024 256.378 211.604C257.098 211.184 257.896 210.974 258.772 210.974ZM262.444 216.05C262.444 215.306 262.294 214.658 261.994 214.106C261.694 213.554 261.286 213.134 260.77 212.846C260.266 212.546 259.708 212.396 259.096 212.396C258.484 212.396 257.926 212.54 257.422 212.828C256.918 213.116 256.516 213.536 256.216 214.088C255.916 214.64 255.766 215.288 255.766 216.032C255.766 216.788 255.916 217.448 256.216 218.012C256.516 218.564 256.918 218.99 257.422 219.29C257.926 219.578 258.484 219.722 259.096 219.722C259.708 219.722 260.266 219.578 260.77 219.29C261.286 218.99 261.694 218.564 261.994 218.012C262.294 217.448 262.444 216.794 262.444 216.05ZM270.936 210.974C271.788 210.974 272.532 211.16 273.168 211.532C273.816 211.904 274.296 212.372 274.608 212.936V211.136H276.264V221.216C276.264 222.116 276.072 222.914 275.688 223.61C275.304 224.318 274.752 224.87 274.032 225.266C273.324 225.662 272.496 225.86 271.548 225.86C270.252 225.86 269.172 225.554 268.308 224.942C267.444 224.33 266.934 223.496 266.778 222.44H268.398C268.578 223.04 268.95 223.52 269.514 223.88C270.078 224.252 270.756 224.438 271.548 224.438C272.448 224.438 273.18 224.156 273.744 223.592C274.32 223.028 274.608 222.236 274.608 221.216V219.146C274.284 219.722 273.804 220.202 273.168 220.586C272.532 220.97 271.788 221.162 270.936 221.162C270.06 221.162 269.262 220.946 268.542 220.514C267.834 220.082 267.276 219.476 266.868 218.696C266.46 217.916 266.256 217.028 266.256 216.032C266.256 215.024 266.46 214.142 266.868 213.386C267.276 212.618 267.834 212.024 268.542 211.604C269.262 211.184 270.06 210.974 270.936 210.974ZM274.608 216.05C274.608 215.306 274.458 214.658 274.158 214.106C273.858 213.554 273.45 213.134 272.934 212.846C272.43 212.546 271.872 212.396 271.26 212.396C270.648 212.396 270.09 212.54 269.586 212.828C269.082 213.116 268.68 213.536 268.38 214.088C268.08 214.64 267.93 215.288 267.93 216.032C267.93 216.788 268.08 217.448 268.38 218.012C268.68 218.564 269.082 218.99 269.586 219.29C270.09 219.578 270.648 219.722 271.26 219.722C271.872 219.722 272.43 219.578 272.934 219.29C273.45 218.99 273.858 218.564 274.158 218.012C274.458 217.448 274.608 216.794 274.608 216.05ZM278.42 216.032C278.42 215.024 278.624 214.142 279.032 213.386C279.44 212.618 279.998 212.024 280.706 211.604C281.426 211.184 282.224 210.974 283.1 210.974C283.964 210.974 284.714 211.16 285.35 211.532C285.986 211.904 286.46 212.372 286.772 212.936V211.136H288.428V221H286.772V219.164C286.448 219.74 285.962 220.22 285.314 220.604C284.678 220.976 283.934 221.162 283.082 221.162C282.206 221.162 281.414 220.946 280.706 220.514C279.998 220.082 279.44 219.476 279.032 218.696C278.624 217.916 278.42 217.028 278.42 216.032ZM286.772 216.05C286.772 215.306 286.622 214.658 286.322 214.106C286.022 213.554 285.614 213.134 285.098 212.846C284.594 212.546 284.036 212.396 283.424 212.396C282.812 212.396 282.254 212.54 281.75 212.828C281.246 213.116 280.844 213.536 280.544 214.088C280.244 214.64 280.094 215.288 280.094 216.032C280.094 216.788 280.244 217.448 280.544 218.012C280.844 218.564 281.246 218.99 281.75 219.29C282.254 219.578 282.812 219.722 283.424 219.722C284.036 219.722 284.594 219.578 285.098 219.29C285.614 218.99 286.022 218.564 286.322 218.012C286.622 217.448 286.772 216.794 286.772 216.05ZM295.527 219.686C297.051 218.462 298.245 217.46 299.109 216.68C299.973 215.888 300.699 215.066 301.287 214.214C301.887 213.35 302.187 212.504 302.187 211.676C302.187 210.896 301.995 210.284 301.611 209.84C301.239 209.384 300.633 209.156 299.793 209.156C298.977 209.156 298.341 209.414 297.885 209.93C297.441 210.434 297.201 211.112 297.165 211.964H295.581C295.629 210.62 296.037 209.582 296.805 208.85C297.573 208.118 298.563 207.752 299.775 207.752C301.011 207.752 301.989 208.094 302.709 208.778C303.441 209.462 303.807 210.404 303.807 211.604C303.807 212.6 303.507 213.572 302.907 214.52C302.319 215.456 301.647 216.284 300.891 217.004C300.135 217.712 299.169 218.54 297.993 219.488H304.185V220.856H295.527V219.686ZM314.377 209.408H308.059V213.512C308.335 213.128 308.743 212.816 309.283 212.576C309.823 212.324 310.405 212.198 311.029 212.198C312.025 212.198 312.835 212.408 313.459 212.828C314.083 213.236 314.527 213.77 314.791 214.43C315.067 215.078 315.205 215.768 315.205 216.5C315.205 217.364 315.043 218.138 314.719 218.822C314.395 219.506 313.897 220.046 313.225 220.442C312.565 220.838 311.743 221.036 310.759 221.036C309.499 221.036 308.479 220.712 307.699 220.064C306.919 219.416 306.445 218.552 306.277 217.472H307.879C308.035 218.156 308.365 218.69 308.869 219.074C309.373 219.458 310.009 219.65 310.777 219.65C311.725 219.65 312.439 219.368 312.919 218.804C313.399 218.228 313.639 217.472 313.639 216.536C313.639 215.6 313.399 214.88 312.919 214.376C312.439 213.86 311.731 213.602 310.795 213.602C310.159 213.602 309.601 213.758 309.121 214.07C308.653 214.37 308.311 214.784 308.095 215.312H306.547V207.968H314.377V209.408ZM317.382 214.358C317.382 212.294 317.718 210.686 318.39 209.534C319.062 208.37 320.238 207.788 321.918 207.788C323.586 207.788 324.756 208.37 325.428 209.534C326.1 210.686 326.436 212.294 326.436 214.358C326.436 216.458 326.1 218.09 325.428 219.254C324.756 220.418 323.586 221 321.918 221C320.238 221 319.062 220.418 318.39 219.254C317.718 218.09 317.382 216.458 317.382 214.358ZM324.816 214.358C324.816 213.314 324.744 212.432 324.6 211.712C324.468 210.98 324.186 210.392 323.754 209.948C323.334 209.504 322.722 209.282 321.918 209.282C321.102 209.282 320.478 209.504 320.046 209.948C319.626 210.392 319.344 210.98 319.2 211.712C319.068 212.432 319.002 213.314 319.002 214.358C319.002 215.438 319.068 216.344 319.2 217.076C319.344 217.808 319.626 218.396 320.046 218.84C320.478 219.284 321.102 219.506 321.918 219.506C322.722 219.506 323.334 219.284 323.754 218.84C324.186 218.396 324.468 217.808 324.6 217.076C324.744 216.344 324.816 215.438 324.816 214.358ZM334.599 209.534C334.287 209.534 334.023 209.426 333.807 209.21C333.591 208.994 333.483 208.73 333.483 208.418C333.483 208.106 333.591 207.842 333.807 207.626C334.023 207.41 334.287 207.302 334.599 207.302C334.899 207.302 335.151 207.41 335.355 207.626C335.571 207.842 335.679 208.106 335.679 208.418C335.679 208.73 335.571 208.994 335.355 209.21C335.151 209.426 334.899 209.534 334.599 209.534ZM335.391 211.136V221H333.753V211.136H335.391ZM340.181 212.486V218.3C340.181 218.78 340.283 219.122 340.487 219.326C340.691 219.518 341.045 219.614 341.549 219.614H342.755V221H341.279C340.367 221 339.683 220.79 339.227 220.37C338.771 219.95 338.543 219.26 338.543 218.3V212.486H337.265V211.136H338.543V208.652H340.181V211.136H342.755V212.486H340.181ZM353.74 215.69C353.74 216.002 353.722 216.332 353.686 216.68H345.802C345.862 217.652 346.192 218.414 346.792 218.966C347.404 219.506 348.142 219.776 349.006 219.776C349.714 219.776 350.302 219.614 350.77 219.29C351.25 218.954 351.586 218.51 351.778 217.958H353.542C353.278 218.906 352.75 219.68 351.958 220.28C351.166 220.868 350.182 221.162 349.006 221.162C348.07 221.162 347.23 220.952 346.486 220.532C345.754 220.112 345.178 219.518 344.758 218.75C344.338 217.97 344.128 217.07 344.128 216.05C344.128 215.03 344.332 214.136 344.74 213.368C345.148 212.6 345.718 212.012 346.45 211.604C347.194 211.184 348.046 210.974 349.006 210.974C349.942 210.974 350.77 211.178 351.49 211.586C352.21 211.994 352.762 212.558 353.146 213.278C353.542 213.986 353.74 214.79 353.74 215.69ZM352.048 215.348C352.048 214.724 351.91 214.19 351.634 213.746C351.358 213.29 350.98 212.948 350.5 212.72C350.032 212.48 349.51 212.36 348.934 212.36C348.106 212.36 347.398 212.624 346.81 213.152C346.234 213.68 345.904 214.412 345.82 215.348H352.048ZM367.764 210.956C368.532 210.956 369.216 211.118 369.816 211.442C370.416 211.754 370.89 212.228 371.238 212.864C371.586 213.5 371.76 214.274 371.76 215.186V221H370.14V215.42C370.14 214.436 369.894 213.686 369.402 213.17C368.922 212.642 368.268 212.378 367.44 212.378C366.588 212.378 365.91 212.654 365.406 213.206C364.902 213.746 364.65 214.532 364.65 215.564V221H363.03V215.42C363.03 214.436 362.784 213.686 362.292 213.17C361.812 212.642 361.158 212.378 360.33 212.378C359.478 212.378 358.8 212.654 358.296 213.206C357.792 213.746 357.54 214.532 357.54 215.564V221H355.902V211.136H357.54V212.558C357.864 212.042 358.296 211.646 358.836 211.37C359.388 211.094 359.994 210.956 360.654 210.956C361.482 210.956 362.214 211.142 362.85 211.514C363.486 211.886 363.96 212.432 364.272 213.152C364.548 212.456 365.004 211.916 365.64 211.532C366.276 211.148 366.984 210.956 367.764 210.956Z" fill="white"/>
<defs>
<clipPath id="clip0_492_2035">
<rect width="65" height="32.4056" fill="white" transform="translate(34 2)"/>
</clipPath>
</defs>
</svg>
