<svg width="22" height="22" viewBox="0 0 22 22" fill="none" xmlns="http://www.w3.org/2000/svg">
<path fill-rule="evenodd" clip-rule="evenodd" d="M3.67721 22H18.3228C20.3556 22 22 20.3556 22 18.3228V3.67721C22 1.65339 20.3466 0 18.3228 0H3.67721C1.65339 0 0 1.65339 0 3.67721V18.3228C0 20.3466 1.65339 22 3.67721 22ZM17.7522 5.17234C18.351 5.17234 18.8364 4.68692 18.8364 4.08812C18.8364 3.48933 18.351 3.00391 17.7522 3.00391C17.1534 3.00391 16.668 3.48933 16.668 4.08812C16.668 4.68692 17.1534 5.17234 17.7522 5.17234ZM11.0042 16.6511C9.49541 16.6511 8.07693 16.0638 7.01081 14.9977C5.94469 13.9315 5.35742 12.5131 5.35742 11.0042C5.35742 9.49541 5.94469 8.07693 7.01081 7.01081C8.07693 5.94469 9.49541 5.35742 11.0042 5.35742C12.5131 5.35742 13.9316 5.94469 14.9977 7.01081C16.0638 8.07693 16.6511 9.49541 16.6511 11.0042C16.6511 12.5131 16.0638 13.9315 14.9977 14.9977C13.9225 16.0638 12.5131 16.6511 11.0042 16.6511ZM11.0042 6.55906C8.55578 6.55906 6.55906 8.54674 6.55906 11.0042C6.55906 13.4527 8.54674 15.4494 11.0042 15.4494C13.4527 15.4494 15.4494 13.4617 15.4494 11.0042C15.4404 8.55578 13.4527 6.55906 11.0042 6.55906Z" fill="white"/>
</svg>
