<svg width="27" height="23" viewBox="0 0 27 23" fill="none" xmlns="http://www.w3.org/2000/svg">
<path d="M0 19.7034C2.83702 19.8631 5.31788 19.1999 7.73734 17.4436C5.29332 17.0261 3.59848 15.9085 2.67737 13.5995C3.3897 13.5013 4.01606 13.6855 4.75295 13.3907C2.34577 12.3345 0.786018 10.7502 0.724611 8.01145C1.48606 8.07286 2.0633 8.5764 2.97213 8.50271C0.761461 6.34117 0.0859704 3.98312 1.47378 1.12154C3.7827 3.77434 6.48464 5.57972 9.78836 6.42714C9.97258 6.47627 10.1445 6.52539 10.3287 6.56224C11.1762 6.75874 12.1832 7.17631 12.6991 7.1149C13.5833 7.00437 12.6991 5.98501 12.9201 4.65861C13.6202 0.532026 18.1643 -1.34704 21.5295 1.07241C22.512 1.78474 23.2857 1.77246 24.2559 1.3426C24.7595 1.12154 25.2753 0.90047 25.8771 0.642559C25.742 1.82158 24.8332 2.4725 24.1086 3.34449C24.9314 3.52871 25.5946 3.29536 26.3561 3.04973C26.0982 3.89715 25.4595 4.37613 24.8823 4.84283C24.2805 5.32181 24.0472 5.82535 24.0226 6.61136C23.6541 18.5121 10.1322 27.711 0.884276 20.3912C-0.0122725 19.6789 0.859704 20.3912 0 19.7034Z" fill="white"/>
</svg>
