<svg width="50" height="50" viewBox="0 0 50 50" fill="none" xmlns="http://www.w3.org/2000/svg">
<circle cx="25.0001" cy="25.0001" r="22.2222" stroke="white" stroke-width="1.04575"/>
<path fill-rule="evenodd" clip-rule="evenodd" d="M17.6772 36H32.3228C34.3556 36 36 34.3556 36 32.3228V17.6772C36 15.6534 34.3466 14 32.3228 14H17.6772C15.6534 14 14 15.6534 14 17.6772V32.3228C14 34.3466 15.6534 36 17.6772 36ZM31.7522 19.1723C32.351 19.1723 32.8364 18.6869 32.8364 18.0881C32.8364 17.4893 32.351 17.0039 31.7522 17.0039C31.1534 17.0039 30.668 17.4893 30.668 18.0881C30.668 18.6869 31.1534 19.1723 31.7522 19.1723ZM25.0042 30.6511C23.4954 30.6511 22.0769 30.0638 21.0108 28.9977C19.9447 27.9315 19.3574 26.5131 19.3574 25.0042C19.3574 23.4954 19.9447 22.0769 21.0108 21.0108C22.0769 19.9447 23.4954 19.3574 25.0042 19.3574C26.5131 19.3574 27.9316 19.9447 28.9977 21.0108C30.0638 22.0769 30.6511 23.4954 30.6511 25.0042C30.6511 26.5131 30.0638 27.9315 28.9977 28.9977C27.9225 30.0638 26.5131 30.6511 25.0042 30.6511ZM25.0042 20.5591C22.5558 20.5591 20.5591 22.5467 20.5591 25.0042C20.5591 27.4527 22.5467 29.4494 25.0042 29.4494C27.4527 29.4494 29.4494 27.4617 29.4494 25.0042C29.4404 22.5558 27.4527 20.5591 25.0042 20.5591Z" fill="white"/>
</svg>
