<svg width="50" height="50" viewBox="0 0 50 50" fill="none" xmlns="http://www.w3.org/2000/svg">
<circle cx="25.0001" cy="25.0001" r="22.2222" stroke="white" stroke-width="1.04575"/>
<path d="M12 33.7034C14.837 33.8631 17.3179 33.1999 19.7373 31.4436C17.2933 31.0261 15.5985 29.9085 14.6774 27.5995C15.3897 27.5013 16.0161 27.6855 16.7529 27.3907C14.3458 26.3345 12.786 24.7502 12.7246 22.0115C13.4861 22.0729 14.0633 22.5764 14.9721 22.5027C12.7615 20.3412 12.086 17.9831 13.4738 15.1215C15.7827 17.7743 18.4846 19.5797 21.7884 20.4271C21.9726 20.4763 22.1445 20.5254 22.3287 20.5622C23.1762 20.7587 24.1832 21.1763 24.6991 21.1149C25.5833 21.0044 24.6991 19.985 24.9201 18.6586C25.6202 14.532 30.1643 12.653 33.5295 15.0724C34.512 15.7847 35.2857 15.7725 36.2559 15.3426C36.7595 15.1215 37.2753 14.9005 37.8771 14.6426C37.742 15.8216 36.8332 16.4725 36.1086 17.3445C36.9314 17.5287 37.5946 17.2954 38.3561 17.0497C38.0982 17.8972 37.4595 18.3761 36.8823 18.8428C36.2805 19.3218 36.0472 19.8253 36.0226 20.6114C35.6541 32.5121 22.1322 41.711 12.8843 34.3912C11.9877 33.6789 12.8597 34.3912 12 33.7034Z" fill="white"/>
</svg>
